<svg width="1440" height="1168" viewBox="0 0 1440 1168" fill="none" xmlns="http://www.w3.org/2000/svg">
<g clip-path="url(#clip0_122_121)">
<path fill-rule="evenodd" clip-rule="evenodd" d="M1463 -0.000244141C1457.69 1.57129 1452.59 3.33927 1447.09 4.9108C1257.91 66.0042 1092.12 222.765 850.492 252.82C609.065 282.876 185.733 146.349 -50.7828 161.868C-54.3187 162.064 -57.8547 162.261 -61.3906 162.654V189.959C-37.6212 186.619 -12.0837 184.459 15.811 183.673C274.132 175.815 529.114 285.823 704.143 301.538C876.816 317.057 988.984 249.284 1276.77 142.617C1340.81 118.847 1404.26 104.507 1463 96.4527V-0.000244141Z" fill="#9786B3" fill-opacity="0.15"/>
<path fill-rule="evenodd" clip-rule="evenodd" d="M1475.77 1105.57C1475.77 1105.57 1432.55 1057.05 1255.56 1044.87C1078.76 1032.5 762.29 1140.54 581.76 1116.97C401.23 1093.2 277.275 969.244 135.837 920.723C-5.60117 872.398 -94 876.916 -94 876.916V994.781C-94 994.781 81.2261 957.85 263.328 1029.36C478.628 1113.83 562.312 1167.45 691.374 1155.27C822.205 1142.9 1012.75 1055.87 1205.86 1061.96C1398.96 1068.25 1455.34 1167.65 1455.34 1167.65L1475.77 1105.57Z" fill="#9786B3" fill-opacity="0.15"/>
<path fill-rule="evenodd" clip-rule="evenodd" d="M1160.28 625.667C971.108 686.761 805.311 843.521 563.687 873.577C395.533 894.4 138.98 834.485 -81.0349 801.483V817.002C108.531 845.289 285.526 910.311 417.142 922.098C589.814 937.617 701.982 869.844 989.77 763.177C1233.55 672.813 1467.71 719.566 1467.71 719.566V570.664C1467.91 570.664 1349.45 564.77 1160.28 625.667Z" fill="#9786B3" fill-opacity="0.15"/>
<path fill-rule="evenodd" clip-rule="evenodd" d="M1533.72 470.282C1327.26 446.709 1132.58 371.864 990.555 359.292C817.883 343.773 705.715 411.546 417.927 518.214C174.143 608.577 -60.0156 561.824 -60.0156 561.824V710.727C-60.0156 710.727 58.2423 716.62 247.612 655.526C436.982 594.433 602.583 437.672 844.206 407.617C1023.95 385.222 1304.67 455.352 1534.11 485.997V470.282H1533.72Z" fill="#9786B3" fill-opacity="0.15"/>
</g>
<defs>
<clipPath id="clip0_122_121">
<rect width="1627.72" height="1167.65" fill="white" transform="translate(-94)"/>
</clipPath>
</defs>
</svg>
