<svg width="217" height="83" viewBox="0 0 217 83" fill="none" xmlns="http://www.w3.org/2000/svg">
<g clip-path="url(#clip0_122_270)">
<path d="M41.3718 43.0092C36.107 45.2477 29.9717 45.2684 24.6241 43.1542C21.9503 42.0972 19.463 40.5219 17.3696 38.5113C15.2761 36.5215 13.5557 34.0757 12.3743 31.4019C11.1928 28.7281 10.5088 25.8055 10.4466 22.8415C10.3845 19.8775 10.9026 16.9135 12.0012 14.1361C13.0997 11.3793 14.7579 8.80914 16.8514 6.67423C18.9656 4.56005 21.515 2.86041 24.2717 1.69969C27.0492 0.559685 30.0339 -0.0206793 33.0394 4.79819e-05C36.0448 0.0207753 39.0088 0.663321 41.7448 1.84478C44.4808 3.02623 46.9474 4.76732 48.9994 6.90223C51.0514 9.03714 52.6267 11.5866 53.6838 14.3019C54.7408 17.0379 55.2383 19.9604 55.1761 22.8622C55.1139 25.7641 54.4714 28.6244 53.3314 31.2568C51.0514 36.563 46.6779 40.8742 41.3718 43.0092ZM41.3718 43.0092C44.0041 41.9106 46.4085 40.2732 48.419 38.2626C50.4296 36.2313 51.9841 33.7855 53.0412 31.1532C54.0776 28.5208 54.575 25.6812 54.5128 22.8622C54.4507 20.0433 53.8081 17.2659 52.6681 14.7164C51.5281 12.167 49.9114 9.86623 47.9008 7.98005C45.911 6.07314 43.5481 4.58078 40.9987 3.58587C35.9205 1.57532 30.0961 1.59605 25.0801 3.73096C20.0434 5.78296 15.8979 9.86623 13.7216 14.8822C11.5037 19.8982 11.3379 25.8055 13.3485 31.0081C14.3434 33.599 15.8565 36.0241 17.8048 38.0553C19.7532 40.0866 22.0954 41.7448 24.707 42.8641C27.3187 43.9833 30.1376 44.6052 32.9979 44.6259C35.879 44.6466 38.7187 44.087 41.3718 43.0092Z" fill="white"/>
<path d="M56.8342 10.5295C58.7619 9.96989 60.731 9.5968 62.7415 9.32735C64.7313 9.07862 66.7626 8.95426 68.8146 9.05789C69.851 9.12007 70.8666 9.24444 71.903 9.47244C72.9393 9.70044 73.9757 10.0528 74.9706 10.6539C75.4681 10.9441 75.9448 11.3379 76.3593 11.7939C76.7739 12.2499 77.1055 12.8095 77.3335 13.4106C77.5615 14.0117 77.6237 14.6335 77.6444 15.2346C77.6444 15.5248 77.6237 15.8357 77.5822 16.1259C77.5615 16.4161 77.4993 16.7063 77.4164 16.9757C77.147 18.0743 76.691 19.0692 76.1935 19.9812C75.6753 20.9139 75.1157 21.7637 74.4939 22.5928C73.2502 24.2303 71.8822 25.7434 70.452 27.1528C67.571 29.9717 64.4411 32.4797 61.1248 34.739C63.8608 31.7957 66.6382 28.9561 69.2084 25.9921C70.4935 24.4997 71.7371 22.9866 72.815 21.3906C73.1051 20.9968 73.3331 20.5823 73.6026 20.1884C73.8306 19.7739 74.1001 19.3801 74.3073 18.9655C74.7426 18.1364 75.1157 17.2866 75.3022 16.4575C75.5095 15.6284 75.551 14.7993 75.3022 14.1361C75.095 13.4521 74.5768 12.8717 73.8721 12.4157C73.1673 11.9597 72.3175 11.6073 71.4262 11.3586C70.535 11.1099 69.5815 10.9233 68.6281 10.799C66.7211 10.5295 64.752 10.4466 62.783 10.4259C60.8346 10.3637 58.8448 10.4466 56.8342 10.5295Z" fill="white"/>
<path d="M9.57594 35.8997C8.14575 37.5164 6.7363 39.1953 5.43048 40.9157C4.78793 41.7862 4.16612 42.6568 3.58575 43.5688C3.00539 44.46 2.46648 45.3928 2.03121 46.3462C1.59593 47.2997 1.24357 48.2946 1.13993 49.2895C1.09848 49.7869 1.09848 50.2637 1.20211 50.7197C1.32648 51.1549 1.51302 51.5695 1.8032 51.9218C2.38357 52.6266 3.27484 53.0826 4.2283 53.3935C5.18175 53.7044 6.21812 53.8702 7.25448 53.9738C9.34794 54.1811 11.4828 54.1189 13.6178 53.9946C15.7527 53.8495 17.8876 53.6215 20.0225 53.352C24.2923 52.8131 28.5621 52.0669 32.8319 51.3415C37.1018 50.616 41.3716 49.8284 45.6829 49.1858C47.8385 48.8749 49.9941 48.564 52.1912 48.3568C53.2898 48.2531 54.3883 48.1702 55.5076 48.108C56.0465 48.0873 56.6891 48.0873 57.2487 48.1288C57.8291 48.1702 58.4301 48.2531 59.0105 48.3982C59.5909 48.5433 60.1505 48.7091 60.7516 48.9786C61.332 49.248 61.8501 49.5589 62.3269 49.932C62.8036 50.3051 63.2389 50.6782 63.6949 51.1757C63.8192 51.3415 63.9021 51.4451 63.9851 51.5695C64.068 51.6938 64.1509 51.8182 64.2338 51.9426C64.3996 52.1913 64.5447 52.44 64.6898 52.7509C64.8556 53.0826 64.9385 53.3935 65.0214 53.6837C65.1043 53.9738 65.1665 54.264 65.208 54.5542C65.3116 55.1346 65.3738 55.6942 65.436 56.2538C65.4567 56.5233 65.4774 56.8342 65.4981 57.0829C65.5189 57.2488 65.5396 57.4353 65.6225 57.6011C65.7676 57.9535 66.0163 58.3473 66.3065 58.6997C66.9283 59.4044 67.7574 60.0469 68.6072 60.5444C68.8145 60.6688 69.0425 60.7724 69.2912 60.8968C69.54 61.0211 69.8094 61.1662 70.0581 61.332C70.5556 61.6637 71.0945 62.0368 71.5091 62.6793C71.7163 62.9902 71.8614 63.4048 71.8614 63.8608C71.8614 64.296 71.7163 64.7106 71.5298 65.0215C71.3432 65.3531 71.1152 65.6019 70.8872 65.8299C70.7629 65.9335 70.6385 66.0579 70.5349 66.1408L70.3691 66.2651L70.224 66.3688C70.0374 66.5139 69.9131 66.6589 69.8509 66.7833C69.768 66.9077 69.7472 66.9906 69.768 67.1149C69.7887 67.3637 70.0167 67.7575 70.3691 68.0684L70.452 68.1513L70.4934 68.2342C70.5556 68.3586 70.6385 68.5244 70.6592 68.7317C70.68 68.9389 70.6385 69.1462 70.5763 69.312C70.4312 69.6437 70.2447 69.8302 70.0581 69.9753C69.7058 70.2655 69.3534 70.452 69.0011 70.6179L68.9596 70.6386L69.0011 70.6179C69.0632 70.5764 69.1047 70.5349 69.1669 70.4728C69.2498 70.3691 69.2912 70.224 69.2912 70.0789C69.2912 69.9339 69.2083 69.768 69.0632 69.6437C69.0011 69.5815 68.8974 69.5608 68.856 69.54H68.8767H68.8974L68.9596 69.5608L69.2291 69.6437C69.4156 69.7059 69.6021 69.768 69.7887 69.8302C69.9752 69.9131 70.1618 69.996 70.3691 70.1204C70.5556 70.2448 70.8043 70.4313 70.9494 70.7837C71.0323 70.9495 71.0531 71.1775 71.0116 71.364C70.9701 71.5506 70.908 71.6957 70.8251 71.82C70.7007 72.0066 70.5971 72.1309 70.4934 72.276C70.2861 72.5662 70.1411 72.7735 70.0996 72.9808C70.0581 73.188 70.0996 73.4575 70.2032 73.7477C70.3069 74.0379 70.452 74.328 70.6178 74.6804C70.7629 75.012 70.9287 75.3437 71.0323 75.7375C71.1567 76.1106 71.1981 76.5666 71.1152 77.0019C70.8872 77.8724 70.2654 78.4528 69.5814 78.8259C69.2291 79.0124 68.856 79.1368 68.5036 79.199L67.4465 79.4062L65.3531 79.8H65.3323C64.9385 79.8415 64.5447 79.9244 64.1509 80.0488C63.7571 80.1731 63.384 80.3182 63.0316 80.5255C62.7 80.7328 62.3891 81.023 62.2025 81.3753C62.016 81.7277 61.9952 82.1629 62.0781 82.5775C61.9538 82.1837 61.9331 81.7277 62.0989 81.3339C62.2647 80.94 62.5549 80.6084 62.9072 80.339C63.2596 80.0902 63.6327 79.883 64.0265 79.7379C64.4203 79.572 64.8349 79.4684 65.2494 79.3855H65.2287L67.2807 78.8466L68.2963 78.5564C68.628 78.4735 68.9181 78.3491 69.1876 78.1833C69.7265 77.8724 70.1618 77.3335 70.2447 76.7946C70.3276 76.2764 70.0374 75.6753 69.7058 75.0742C69.54 74.784 69.3534 74.4524 69.1876 74.0793C69.0425 73.7062 68.8974 73.2709 68.9803 72.7735C69.0425 72.276 69.312 71.8822 69.5192 71.592C69.6229 71.4469 69.7265 71.2811 69.7887 71.1775C69.8094 71.136 69.8094 71.136 69.8094 71.136C69.8094 71.136 69.8094 71.1775 69.8094 71.1982C69.8301 71.2189 69.768 71.1568 69.6643 71.0946C69.5607 71.0324 69.4363 70.9702 69.2912 70.9288C69.1461 70.8873 69.0011 70.8251 68.8352 70.7837L68.5865 70.7215L68.5243 70.7008H68.4829H68.4621C68.4 70.68 68.2963 70.6386 68.2341 70.5971C68.0683 70.4728 67.9854 70.2862 67.9647 70.1204C67.944 69.9546 68.0061 69.7888 68.1098 69.6644C68.1512 69.6022 68.2134 69.54 68.2963 69.4986L68.3585 69.4571L68.3792 69.4364C68.6694 69.2913 68.9389 69.1255 69.1254 68.9389C69.2083 68.856 69.2705 68.7731 69.2498 68.7731C69.2498 68.7731 69.2291 68.8146 69.2498 68.8353C69.2498 68.856 69.2498 68.8768 69.2291 68.8353L69.3534 68.9804C69.1254 68.7731 68.9181 68.5451 68.7109 68.2549C68.5243 67.9855 68.3378 67.6331 68.2756 67.2186C68.2134 66.804 68.2963 66.3273 68.5036 65.9957C68.6901 65.6433 68.9596 65.3739 69.1876 65.1666L69.3534 65.0215L69.4985 64.8971C69.6021 64.8142 69.6643 64.7313 69.7472 64.6691C69.8923 64.5033 70.0374 64.3582 70.0996 64.1924C70.1825 64.0473 70.2032 63.9229 70.2032 63.8193C70.2032 63.7157 70.1618 63.612 70.0581 63.4669C69.8716 63.1975 69.4985 62.9073 69.1047 62.6586C68.8974 62.5342 68.6901 62.4306 68.4414 62.3062C68.2134 62.2026 67.944 62.0782 67.6745 61.9331C66.6381 61.3528 65.7054 60.7102 64.8556 59.7982C64.4411 59.3422 64.0472 58.824 63.7985 58.1815C63.6741 57.8499 63.5705 57.4975 63.5498 57.1244L63.4876 56.3368C63.4254 55.8186 63.3632 55.3211 63.2596 54.8237C63.156 54.3469 63.0316 53.8288 62.8658 53.5179C62.7621 53.3313 62.6378 53.124 62.4927 52.9168C62.4305 52.8131 62.3476 52.7095 62.2854 52.6058C62.2232 52.5022 62.1403 52.3986 62.0989 52.3571C61.8294 52.0462 61.4356 51.7146 61.0418 51.4451C60.648 51.1549 60.2334 50.9269 59.8396 50.7404C59.4251 50.5746 58.9483 50.4295 58.4716 50.3258C57.9949 50.2222 57.4974 50.16 57.0207 50.1186C56.5232 50.0771 56.0672 50.0771 55.5283 50.1186C54.4712 50.16 53.4141 50.2637 52.357 50.3673C50.2221 50.5953 48.0872 50.9062 45.973 51.2378C41.7032 51.9011 37.4334 52.6266 33.1429 53.3313C28.8523 54.036 24.541 54.6578 20.209 55.1346C18.0327 55.3626 15.8563 55.5491 13.6592 55.6113C11.4621 55.6735 9.2443 55.6528 7.02648 55.3833C5.90721 55.2382 4.80866 55.0102 3.71011 54.5957C2.6323 54.2018 1.53375 53.6008 0.746114 52.5851C0.352295 52.0877 0.103568 51.4866 -0.0207958 50.8648C-0.145159 50.2429 -0.124432 49.6418 -0.041523 49.0615C0.145022 47.9008 0.601023 46.8437 1.1192 45.8488C2.1763 43.8797 3.52357 42.1386 4.95375 40.5011C6.48757 38.9258 8.02139 37.392 9.57594 35.8997Z" fill="white"/>
</g>
<path d="M88.291 55.3908C85.2522 55.3908 82.9326 54.5457 81.3323 52.8554C79.7499 51.1652 78.9587 48.7647 78.9587 45.6539C78.9587 44.1075 79.2015 42.7319 79.687 41.5272C80.1725 40.3044 80.8378 39.2795 81.6829 38.4523C82.528 37.6072 83.535 36.9689 84.7038 36.5373C85.8725 36.1058 87.1402 35.89 88.5068 35.89C89.298 35.89 90.0173 35.9529 90.6646 36.0788C91.3119 36.1867 91.8783 36.3215 92.3638 36.4834C92.8493 36.6272 93.2539 36.7801 93.5776 36.9419C93.9012 37.1037 94.135 37.2296 94.2788 37.3195L93.0651 40.718C92.4897 40.4123 91.8154 40.1516 91.0422 39.9358C90.287 39.72 89.4239 39.6121 88.4529 39.6121C87.8055 39.6121 87.1672 39.72 86.5379 39.9358C85.9265 40.1516 85.3781 40.5022 84.8926 40.9877C84.425 41.4552 84.0474 42.0666 83.7597 42.8218C83.472 43.577 83.3282 44.4941 83.3282 45.573C83.3282 46.4361 83.4181 47.2452 83.5979 48.0004C83.7957 48.7377 84.1014 49.376 84.515 49.9155C84.9465 50.4549 85.5039 50.8865 86.1872 51.2101C86.8705 51.5158 87.6977 51.6686 88.6687 51.6686C89.28 51.6686 89.8284 51.6327 90.3139 51.5608C90.7994 51.4888 91.231 51.4079 91.6086 51.318C91.9862 51.2101 92.3189 51.0932 92.6066 50.9674C92.8943 50.8415 93.155 50.7246 93.3888 50.6167L94.5486 53.9882C93.9552 54.3479 93.119 54.6715 92.0402 54.9592C90.9613 55.2469 89.7116 55.3908 88.291 55.3908ZM109.942 47.8926C109.942 49.0074 109.78 50.0323 109.457 50.9674C109.133 51.8844 108.665 52.6756 108.054 53.3409C107.443 53.9882 106.705 54.4917 105.842 54.8514C104.997 55.211 104.044 55.3908 102.983 55.3908C101.94 55.3908 100.987 55.211 100.124 54.8514C99.2791 54.4917 98.5508 53.9882 97.9395 53.3409C97.3281 52.6756 96.8516 51.8844 96.5099 50.9674C96.1683 50.0323 95.9975 49.0074 95.9975 47.8926C95.9975 46.7777 96.1683 45.7618 96.5099 44.8447C96.8696 43.9277 97.3551 43.1455 97.9664 42.4982C98.5958 41.8508 99.333 41.3473 100.178 40.9877C101.041 40.6281 101.976 40.4483 102.983 40.4483C104.008 40.4483 104.943 40.6281 105.788 40.9877C106.651 41.3473 107.389 41.8508 108 42.4982C108.611 43.1455 109.088 43.9277 109.43 44.8447C109.771 45.7618 109.942 46.7777 109.942 47.8926ZM105.842 47.8926C105.842 46.6518 105.591 45.6809 105.087 44.9796C104.602 44.2603 103.9 43.9007 102.983 43.9007C102.066 43.9007 101.356 44.2603 100.852 44.9796C100.349 45.6809 100.097 46.6518 100.097 47.8926C100.097 49.1333 100.349 50.1223 100.852 50.8595C101.356 51.5787 102.066 51.9384 102.983 51.9384C103.9 51.9384 104.602 51.5787 105.087 50.8595C105.591 50.1223 105.842 49.1333 105.842 47.8926ZM117.128 52.1272C117.865 52.1272 118.387 52.0552 118.692 51.9114C118.998 51.7675 119.151 51.4888 119.151 51.0753C119.151 50.7516 118.953 50.4729 118.557 50.2391C118.162 49.9874 117.56 49.7087 116.75 49.403C116.121 49.1692 115.546 48.9265 115.024 48.6748C114.521 48.423 114.089 48.1263 113.729 47.7847C113.37 47.425 113.091 47.0025 112.893 46.517C112.696 46.0315 112.597 45.4471 112.597 44.7638C112.597 43.4332 113.091 42.3813 114.08 41.6081C115.069 40.8349 116.427 40.4483 118.153 40.4483C119.016 40.4483 119.843 40.5292 120.634 40.691C121.426 40.8349 122.055 40.9967 122.522 41.1765L121.821 44.3053C121.354 44.1434 120.841 43.9996 120.284 43.8737C119.744 43.7479 119.133 43.6849 118.45 43.6849C117.191 43.6849 116.562 44.0356 116.562 44.7368C116.562 44.8987 116.589 45.0425 116.642 45.1684C116.696 45.2943 116.804 45.4201 116.966 45.546C117.128 45.6539 117.344 45.7797 117.613 45.9236C117.901 46.0495 118.261 46.1933 118.692 46.3552C119.573 46.6788 120.302 47.0025 120.877 47.3261C121.452 47.6318 121.902 47.9735 122.226 48.3511C122.567 48.7107 122.801 49.1153 122.927 49.5648C123.071 50.0144 123.143 50.5358 123.143 51.1292C123.143 52.5318 122.612 53.5927 121.551 54.3119C120.508 55.0312 119.025 55.3908 117.101 55.3908C115.842 55.3908 114.79 55.2829 113.945 55.0671C113.118 54.8514 112.543 54.6715 112.219 54.5277L112.893 51.2641C113.577 51.5338 114.278 51.7496 114.997 51.9114C115.716 52.0552 116.427 52.1272 117.128 52.1272ZM133.941 47.488C133.941 46.1933 133.77 45.2763 133.429 44.7368C133.105 44.1974 132.538 43.9277 131.729 43.9277C131.478 43.9277 131.217 43.9457 130.947 43.9816C130.677 43.9996 130.417 44.0266 130.165 44.0625V55.0132H126.146V41.3114C126.488 41.2215 126.883 41.1316 127.333 41.0417C127.8 40.9338 128.286 40.8439 128.789 40.7719C129.311 40.682 129.841 40.6191 130.381 40.5831C130.92 40.5292 131.451 40.5022 131.972 40.5022C132.997 40.5022 133.824 40.6371 134.454 40.9068C135.101 41.1585 135.631 41.4642 136.045 41.8238C136.62 41.4103 137.277 41.0866 138.014 40.8529C138.769 40.6191 139.461 40.5022 140.091 40.5022C141.223 40.5022 142.15 40.664 142.869 40.9877C143.606 41.2934 144.19 41.7339 144.622 42.3093C145.054 42.8847 145.35 43.568 145.512 44.3592C145.674 45.1504 145.755 46.0315 145.755 47.0025V55.0132H141.736V47.488C141.736 46.1933 141.565 45.2763 141.223 44.7368C140.9 44.1974 140.333 43.9277 139.524 43.9277C139.308 43.9277 139.003 43.9816 138.607 44.0895C138.23 44.1974 137.915 44.3322 137.663 44.4941C137.789 44.9077 137.87 45.3482 137.906 45.8157C137.942 46.2652 137.96 46.7507 137.96 47.2722V55.0132H133.941V47.488ZM162.674 47.8926C162.674 49.0074 162.513 50.0323 162.189 50.9674C161.865 51.8844 161.398 52.6756 160.786 53.3409C160.175 53.9882 159.438 54.4917 158.575 54.8514C157.73 55.211 156.777 55.3908 155.716 55.3908C154.673 55.3908 153.72 55.211 152.857 54.8514C152.012 54.4917 151.283 53.9882 150.672 53.3409C150.061 52.6756 149.584 51.8844 149.242 50.9674C148.901 50.0323 148.73 49.0074 148.73 47.8926C148.73 46.7777 148.901 45.7618 149.242 44.8447C149.602 43.9277 150.088 43.1455 150.699 42.4982C151.328 41.8508 152.065 41.3473 152.911 40.9877C153.774 40.6281 154.709 40.4483 155.716 40.4483C156.741 40.4483 157.676 40.6281 158.521 40.9877C159.384 41.3473 160.121 41.8508 160.732 42.4982C161.344 43.1455 161.82 43.9277 162.162 44.8447C162.504 45.7618 162.674 46.7777 162.674 47.8926ZM158.575 47.8926C158.575 46.6518 158.323 45.6809 157.82 44.9796C157.334 44.2603 156.633 43.9007 155.716 43.9007C154.799 43.9007 154.088 44.2603 153.585 44.9796C153.081 45.6809 152.83 46.6518 152.83 47.8926C152.83 49.1333 153.081 50.1223 153.585 50.8595C154.088 51.5787 154.799 51.9384 155.716 51.9384C156.633 51.9384 157.334 51.5787 157.82 50.8595C158.323 50.1223 158.575 49.1333 158.575 47.8926ZM177.332 36.3215H181.539V55.0132H177.332V47.0834H170.265V55.0132H166.057V36.3215H170.265V43.4691H177.332V36.3215ZM197.706 54.5277C197.022 54.7255 196.141 54.9053 195.062 55.0671C193.984 55.2469 192.851 55.3368 191.664 55.3368C190.459 55.3368 189.452 55.175 188.643 54.8514C187.852 54.5277 187.223 54.0782 186.755 53.5027C186.288 52.9094 185.955 52.2081 185.757 51.3989C185.559 50.5898 185.46 49.6997 185.46 48.7287V40.8259H189.479V48.2432C189.479 49.5379 189.65 50.4729 189.992 51.0483C190.333 51.6237 190.972 51.9114 191.907 51.9114C192.194 51.9114 192.5 51.9024 192.824 51.8844C193.147 51.8485 193.435 51.8125 193.687 51.7765V40.8259H197.706V54.5277ZM210.568 47.8116C210.568 45.2223 209.615 43.9277 207.709 43.9277C207.295 43.9277 206.882 43.9816 206.468 44.0895C206.072 44.1974 205.749 44.3322 205.497 44.4941V51.8035C205.695 51.8395 205.947 51.8754 206.252 51.9114C206.558 51.9294 206.891 51.9384 207.25 51.9384C208.347 51.9384 209.174 51.5608 209.732 50.8055C210.289 50.0503 210.568 49.0524 210.568 47.8116ZM214.668 47.9195C214.668 49.0524 214.497 50.0773 214.155 50.9943C213.831 51.9114 213.355 52.6936 212.726 53.3409C212.096 53.9882 211.323 54.4917 210.406 54.8514C209.489 55.193 208.446 55.3638 207.277 55.3638C206.792 55.3638 206.279 55.3368 205.74 55.2829C205.218 55.2469 204.697 55.193 204.175 55.1211C203.672 55.0491 203.186 54.9682 202.719 54.8783C202.251 54.7704 201.838 54.6625 201.478 54.5547V34.7302L205.497 34.0829V41.1495C205.947 40.9518 206.414 40.7989 206.9 40.691C207.385 40.5831 207.907 40.5292 208.464 40.5292C209.471 40.5292 210.361 40.709 211.134 41.0686C211.907 41.4103 212.555 41.9048 213.076 42.5521C213.598 43.1994 213.993 43.9816 214.263 44.8987C214.533 45.7977 214.668 46.8047 214.668 47.9195Z" fill="white"/>
<defs>
<clipPath id="clip0_122_270">
<rect width="77.6444" height="82.6189" fill="white"/>
</clipPath>
</defs>
</svg>
