<svg width="29" height="20" viewBox="0 0 29 20" fill="none" xmlns="http://www.w3.org/2000/svg">
<path d="M16.1 11.9344C16.1 11.9344 17.3 18.6344 28.7 15.7344C28.7 15.7344 23.7 4.53436 17.8 8.33436C17 8.83436 15.7 10.4344 16.1 11.9344Z" fill="url(#paint0_radial_122_130)"/>
<path d="M16.1999 11.4343C16.1999 11.4343 17.0999 16.3343 26.0999 14.1343C26.0999 14.1343 22.1999 5.63428 17.4999 8.53428C16.8999 8.93428 15.8999 10.3343 16.1999 11.4343Z" fill="url(#paint1_radial_122_130)"/>
<path d="M16.4002 10.6343C16.4002 10.6343 16.9002 13.4343 21.9002 12.1343C21.9002 12.1343 19.7002 7.43431 17.1002 9.03431C16.8002 9.23431 16.3002 10.0343 16.4002 10.6343Z" fill="url(#paint2_radial_122_130)"/>
<path d="M16.1 14.2344C13.6 13.5344 7.9 10.6344 8.8 14.8344C9.1 16.3344 10.4 17.5344 11.8 18.4344C16.5 21.1344 19.1 18.9344 19.1 18.9344C19.1 18.9344 20.2 18.4344 17.4 16.8344C14.6 15.3344 16.1 14.2344 16.1 14.2344Z" fill="url(#paint3_radial_122_130)"/>
<path d="M11.1001 13.8344C11.1001 13.9344 11.1001 14.0344 11.1001 14.1344C11.2001 14.4344 11.3001 14.6344 11.5001 14.9344C11.7001 15.2344 12.4001 16.1344 12.7001 16.3344C12.7001 16.3344 12.6001 16.3344 12.6001 16.2344C13.6001 17.1344 14.9001 17.9344 16.3001 18.3344C16.9001 18.4344 18.0001 18.8344 18.4001 18.3344C18.9001 17.7344 17.6001 17.1344 17.1001 16.9344C14.8001 15.7344 16.0001 14.8344 16.0001 14.8344C14.8001 14.5344 12.7001 13.5344 11.4001 13.5344C11.2001 13.6344 11.1001 13.6344 11.1001 13.8344Z" fill="url(#paint4_radial_122_130)"/>
<path d="M11.8999 12.8345C12.8999 13.1345 13.7999 13.7345 14.3999 14.4345C14.7999 14.9345 15.0999 15.4345 15.3999 16.0345C15.5999 16.4345 15.7999 16.9345 15.8999 17.4345C15.8999 17.8345 15.9999 18.2345 15.8999 18.5345C15.7999 19.0345 15.6999 19.3345 15.5999 19.6345C17.9999 19.9345 19.1999 18.8345 19.1999 18.8345C19.1999 18.8345 20.2999 18.3345 17.4999 16.7345C14.5999 15.2345 16.0999 14.1345 16.0999 14.1345C14.9999 13.9345 13.2999 13.1345 11.8999 12.8345Z" fill="url(#paint5_radial_122_130)"/>
<path d="M10.4002 14.3345C10.5002 14.6345 10.6002 14.9345 10.6002 15.0345C10.6002 15.9345 9.7002 15.7345 9.7002 14.8345C9.7002 14.5345 9.8002 14.2345 9.9002 14.1345C10.1002 13.8345 10.3002 14.0345 10.4002 14.3345Z" fill="url(#paint6_radial_122_130)"/>
<path d="M10.7004 16.1345C10.9004 16.1345 11.1004 16.3345 11.2004 16.4345C11.5004 16.7345 11.5004 17.2345 11.0004 16.9345C10.8004 16.8345 10.4004 16.5345 10.4004 16.2345C10.4004 16.1345 10.5004 16.1345 10.7004 16.1345Z" fill="url(#paint7_radial_122_130)"/>
<path d="M19.6001 6.63431C17.4001 5.23431 11.5001 2.73431 15.3001 0.734313C16.7001 0.0343128 18.4001 0.134313 20.0001 0.734313C25.1001 2.53431 25.2001 5.93431 25.2001 5.93431C25.2001 5.93431 25.5001 7.13431 22.5001 5.93431C19.4001 4.83431 19.6001 6.63431 19.6001 6.63431Z" fill="url(#paint8_radial_122_130)"/>
<path d="M16.0003 3.13439C16.0003 3.03439 16.1003 3.03439 16.2003 2.93439C16.4003 2.83439 16.8003 2.73439 17.0003 2.73439C17.4003 2.73439 18.5003 2.63439 18.8003 2.73439H18.7003C20.0003 2.93439 21.5003 3.33439 22.7003 4.13439C23.2003 4.53439 24.1003 5.03439 24.0003 5.73439C23.9003 6.43439 22.6003 5.83439 22.1003 5.63439C19.7003 4.63439 19.8003 6.23439 19.8003 6.23439C18.8003 5.53439 16.7003 4.63439 15.8003 3.53439C15.9003 3.33439 15.9003 3.23439 16.0003 3.13439Z" fill="url(#paint9_radial_122_130)"/>
<path d="M15.8003 4.33437C16.7003 4.83437 17.7003 5.23438 18.7003 5.13438C19.3003 5.13438 20.0003 5.03437 20.6003 4.93437C21.1003 4.83437 21.6003 4.63437 22.0003 4.43437C22.3003 4.23437 22.7003 4.03437 22.9003 3.73438C23.2003 3.33438 23.4003 3.03438 23.5003 2.73438C25.2003 4.33438 25.3003 6.03438 25.3003 6.03438C25.3003 6.03438 25.6003 7.23438 22.6003 6.03438C19.6003 4.83438 19.7003 6.73438 19.7003 6.73438C18.6003 6.03437 17.0003 5.23438 15.8003 4.33437Z" fill="url(#paint10_radial_122_130)"/>
<path d="M16.0001 2.23421C16.3001 2.13421 16.5001 1.93421 16.7001 1.83421C17.4001 1.23421 16.6001 0.73421 15.9001 1.23421C15.7001 1.43421 15.5001 1.63421 15.5001 1.83421C15.4001 2.33421 15.7001 2.33421 16.0001 2.23421Z" fill="url(#paint11_radial_122_130)"/>
<path d="M17.5002 1.23432C17.7002 1.33432 17.9002 1.43432 18.1002 1.43432C18.6002 1.43432 18.9002 1.13432 18.4002 0.934318C18.2002 0.834318 17.7002 0.734318 17.5002 0.934318C17.3002 1.03432 17.4002 1.13432 17.5002 1.23432Z" fill="url(#paint12_radial_122_130)"/>
<path d="M0.0999023 2.13436C-9.76548e-05 2.53436 -9.76548e-05 2.93436 0.0999023 3.33436C1.0999 7.33436 4.1999 10.7344 8.1999 12.6344C9.6999 13.3344 11.2999 14.0344 12.8999 14.4344C14.3999 14.8344 15.5999 14.9344 16.8999 14.2344C19.0999 13.0344 20.5999 9.83436 20.0999 7.23436C19.7999 5.73436 18.9999 4.93436 17.6999 4.03436C16.2999 3.13436 14.7999 2.33436 13.2999 1.63436C11.9999 1.03436 10.5999 0.634363 9.1999 0.334363C6.9999 0.0343625 4.7999 0.234363 2.8999 0.834363C2.0999 1.03436 1.2999 1.33436 0.599902 1.73436C0.299902 1.83436 0.199902 2.03436 0.0999023 2.13436Z" fill="url(#paint13_radial_122_130)"/>
<path opacity="0.5" d="M9.1 0.434473C8.9 0.434473 8.7 0.334473 8.5 0.334473C9.9 0.934473 11.3 1.53447 12.6 2.33447C14.6 3.63447 16.8 5.13447 17.6 7.43447C18.5 9.83447 17.8 12.3345 16.2 14.1345C16.2 14.1345 16.2 14.2345 16.1 14.2345L16 14.3345L15.9 14.4345C16.2 14.3345 16.5 14.2345 16.8 14.0345C19 12.8345 20.5 9.63447 20 7.03447C19.7 5.53447 18.9 4.73447 17.6 3.83447C16.2 2.93447 14.7 2.13447 13.2 1.43447C11.9 1.03447 10.5 0.634473 9.1 0.434473Z" fill="url(#paint14_radial_122_130)"/>
<g opacity="0.4">
<path opacity="0.4" d="M18.1 6.93424C18 6.73424 18 6.33424 18 6.23424C18 5.33424 18.7 5.43424 18.8 6.23424C18.8 6.53424 18.8 6.73424 18.7 6.93424C18.4 7.33424 18.3 7.23424 18.1 6.93424Z" fill="url(#paint15_radial_122_130)"/>
<path opacity="0.4" d="M17.8 5.23436C17.6 5.23436 17.4 5.13436 17.3 5.03436C17 4.73436 17 4.33436 17.5 4.43436C17.7 4.53436 18 4.73436 18 4.93436C18 5.13436 17.9 5.23436 17.8 5.23436Z" fill="url(#paint16_radial_122_130)"/>
</g>
<path d="M20 7.23438C19.8 6.43438 19.5 5.73438 19 5.23438C19.2 6.33438 19.3 7.93438 18.3 10.2344C17.3 12.6344 15.9 13.9344 15 14.7344C15.6 14.7344 16.2 14.5344 16.8 14.2344C19.1 12.9344 20.5 9.73438 20 7.23438Z" fill="url(#paint17_radial_122_130)"/>
<path opacity="0.3" d="M18.2999 10.5344C17.9999 11.8344 17.5999 13.0344 16.8999 14.1344C19.0999 12.8344 20.4999 9.73438 19.9999 7.23438C19.7999 6.43438 19.4999 5.73438 18.9999 5.23438C19.1999 6.23438 19.2999 7.73438 18.4999 9.83438C18.3999 10.0344 18.2999 10.2344 18.2999 10.5344Z" fill="url(#paint18_radial_122_130)"/>
<path d="M4.2999 3.93447C4.8999 2.73447 5.1999 1.43447 5.2999 0.334473C4.4999 0.434473 3.6999 0.534473 2.8999 0.834473C2.0999 1.03447 1.2999 1.33447 0.599902 1.73447C0.299902 1.83447 0.199902 2.03447 0.0999023 2.13447C-9.76548e-05 2.53447 -9.76548e-05 2.93447 0.0999023 3.33447C0.499902 4.73447 1.0999 6.13447 1.9999 7.33447C2.8999 6.43447 3.6999 5.33447 4.2999 3.93447Z" fill="url(#paint19_radial_122_130)"/>
<path opacity="0.3" d="M2.8999 0.834473C3.3999 1.33447 3.5999 2.13447 3.4999 2.83447C3.1999 3.93447 2.8999 5.13447 1.9999 5.93447C1.9999 6.03447 1.8999 6.13447 1.7999 6.23447C1.6999 6.33447 1.5999 6.43447 1.3999 6.53447C1.5999 6.83447 1.6999 7.03447 1.8999 7.33447C2.7999 6.43447 3.5999 5.23447 4.2999 3.93447C4.8999 2.73447 5.1999 1.43447 5.2999 0.334473C4.4999 0.434473 3.6999 0.534473 2.8999 0.834473Z" fill="url(#paint20_radial_122_130)"/>
<g opacity="0.5">
<path opacity="0.5" d="M1.19984 2.73439C1.29984 2.93439 1.29984 3.23439 1.29984 3.43439C1.19984 4.33439 0.399841 4.13439 0.499841 3.23439C0.499841 2.93439 0.599841 2.73439 0.699841 2.53439C0.899841 2.23439 1.09984 2.43439 1.19984 2.73439Z" fill="url(#paint21_linear_122_130)"/>
<path opacity="0.5" d="M1.3 4.43433C1.5 4.43433 1.7 4.63433 1.7 4.73433C2 5.03433 1.9 5.43433 1.5 5.23433C1.3 5.13433 1 4.93433 1 4.63433C1 4.43433 1.1 4.43433 1.3 4.43433Z" fill="url(#paint22_linear_122_130)"/>
</g>
<path d="M15.0002 5.13448C16.8002 5.93448 17.6002 8.13448 16.8002 9.93448C16.0002 11.7345 13.8002 12.5345 12.0002 11.7345C10.2002 10.9345 9.40024 8.73448 10.2002 6.93448C11.0002 5.03448 13.2002 4.23448 15.0002 5.13448Z" fill="url(#paint23_radial_122_130)"/>
<path d="M14.7 5.33442C16.4 6.13442 17.2 8.23442 16.4 9.93442C15.6 11.6344 13.5 12.4344 11.8 11.6344C10.1 10.8344 9.30003 8.73442 10.1 7.03442C10.9 5.23442 13 4.43442 14.7 5.33442Z" fill="url(#paint24_linear_122_130)"/>
<path d="M14 5.33442C13.5 5.13442 13 5.03442 12.5 5.03442C11.5 5.23442 10.6 5.93442 10.1 6.93442C9.30003 8.63442 10.1 10.7344 11.8 11.5344C11.9 11.6344 12 11.6344 12.2 11.6344C13.6 11.8344 15 11.0344 15.6 9.73442C16.4 8.13442 15.6 6.13442 14 5.33442Z" fill="url(#paint25_linear_122_130)"/>
<path d="M14.4 5.93456C15.8 6.53456 16.4 8.23456 15.8 9.53456C15.2 10.9346 13.5 11.5346 12.2 10.9346C10.8 10.3346 10.2 8.63456 10.8 7.33456C11.4 5.93456 13 5.33456 14.4 5.93456Z" fill="url(#paint26_radial_122_130)"/>
<path d="M13.6003 6.53461C14.6003 7.03461 15.1003 8.23461 14.6003 9.23461C14.1003 10.2346 12.9003 10.7346 11.9003 10.2346C10.9003 9.73461 10.4003 8.53461 10.9003 7.53461C11.4003 6.43461 12.6003 6.03461 13.6003 6.53461Z" fill="url(#paint27_radial_122_130)"/>
<path d="M14.8999 9.2345C14.8999 9.0345 14.9999 8.7345 14.9999 8.6345C15.2999 7.9345 15.7999 8.2345 15.5999 8.9345C15.4999 9.1345 15.3999 9.3345 15.2999 9.4345C14.9999 9.7345 14.8999 9.5345 14.8999 9.2345Z" fill="url(#paint28_radial_122_130)"/>
<path d="M15.2999 7.83458C15.1999 7.73458 15.0999 7.63458 14.9999 7.53458C14.8999 7.23458 14.9999 6.93458 15.2999 7.13458C15.3999 7.23458 15.5999 7.53458 15.4999 7.73458C15.4999 7.93458 15.3999 7.93458 15.2999 7.83458Z" fill="url(#paint29_radial_122_130)"/>
<path d="M8.49993 3.33443C9.79993 3.93443 10.2999 5.43443 9.79993 6.73443C9.19993 7.93443 7.69993 8.53443 6.39993 7.93443C5.09993 7.33443 4.59993 5.83443 5.09993 4.53443C5.69993 3.23443 7.19993 2.73443 8.49993 3.33443Z" fill="url(#paint30_radial_122_130)"/>
<path d="M8.30013 3.43442C9.50013 4.03442 10.1001 5.43442 9.50013 6.63442C9.00013 7.93442 7.50013 8.43442 6.30013 7.83442C5.10013 7.23442 4.50013 5.83442 5.10013 4.63442C5.70013 3.43442 7.10013 2.93442 8.30013 3.43442Z" fill="url(#paint31_linear_122_130)"/>
<path d="M7.80013 3.53447C7.50013 3.33447 7.10013 3.33447 6.80013 3.33447C6.00013 3.43447 5.40013 3.93447 5.10013 4.63447C4.50013 5.83447 5.10013 7.33447 6.30013 7.83447C6.40013 7.83447 6.50013 7.93447 6.60013 7.93447C7.60013 8.03447 8.50013 7.53447 9.00013 6.53447C9.50013 5.43447 9.00013 4.03447 7.80013 3.53447Z" fill="url(#paint32_linear_122_130)"/>
<path d="M8.10002 3.93445C9.10002 4.33445 9.50002 5.53445 9.00002 6.43445C8.60002 7.43445 7.40002 7.83445 6.50002 7.33445C5.50002 6.93445 5.10002 5.73445 5.60002 4.83445C6.00002 3.93445 7.10002 3.43445 8.10002 3.93445Z" fill="url(#paint33_radial_122_130)"/>
<path d="M7.50021 4.33443C8.20021 4.63443 8.50021 5.53443 8.20021 6.23443C7.90021 6.83443 7.00021 7.13443 6.30021 6.83443C5.60021 6.53443 5.30021 5.63443 5.60021 4.93443C6.00021 4.23443 6.80021 3.93443 7.50021 4.33443Z" fill="url(#paint34_radial_122_130)"/>
<path d="M8.5 6.2343C8.5 6.1343 8.5 5.9343 8.6 5.8343C8.7 5.3343 9.1 5.5343 9 6.0343C8.9 6.2343 8.8 6.3343 8.7 6.4343C8.5 6.5343 8.5 6.4343 8.5 6.2343Z" fill="url(#paint35_radial_122_130)"/>
<path d="M8.70017 5.23441C8.60017 5.23441 8.60017 5.13441 8.50017 5.03441C8.40017 4.83441 8.50017 4.53441 8.70017 4.73441C8.90017 4.83441 9.00017 5.03441 8.90017 5.13441C8.90017 5.23441 8.80017 5.33441 8.70017 5.23441Z" fill="url(#paint36_radial_122_130)"/>
<defs>
<radialGradient id="paint0_radial_122_130" cx="0" cy="0" r="1" gradientUnits="userSpaceOnUse" gradientTransform="translate(17.8929 10.126) rotate(28.6127) scale(12.4784 17.9138)">
<stop offset="0.1882" stop-color="#0683EA"/>
<stop offset="0.6034" stop-color="#0BB3F6"/>
<stop offset="1" stop-color="#F2F4FF"/>
</radialGradient>
<radialGradient id="paint1_radial_122_130" cx="0" cy="0" r="1" gradientUnits="userSpaceOnUse" gradientTransform="translate(17.6248 10.0404) rotate(27.0041) scale(9.61919 13.6058)">
<stop offset="0.1882" stop-color="#0683EA"/>
<stop offset="0.6034" stop-color="#0BB3F6"/>
<stop offset="1" stop-color="#F2F4FF"/>
</radialGradient>
<radialGradient id="paint2_radial_122_130" cx="0" cy="0" r="1" gradientUnits="userSpaceOnUse" gradientTransform="translate(17.2156 9.87316) rotate(27.0041) scale(5.35926 7.58038)">
<stop offset="0.1882" stop-color="#0683EA"/>
<stop offset="0.6034" stop-color="#0BB3F6"/>
<stop offset="1" stop-color="#F2F4FF"/>
</radialGradient>
<radialGradient id="paint3_radial_122_130" cx="0" cy="0" r="1" gradientUnits="userSpaceOnUse" gradientTransform="translate(6.76934 14.4279) rotate(-65.3161) scale(11.5612 13.9988)">
<stop stop-color="#F2F4FF"/>
<stop offset="0.3966" stop-color="#0BB3F6"/>
<stop offset="0.8118" stop-color="#0683EA"/>
</radialGradient>
<radialGradient id="paint4_radial_122_130" cx="0" cy="0" r="1" gradientUnits="userSpaceOnUse" gradientTransform="translate(8.58773 14.8066) rotate(-65.3161) scale(9.00065 10.8984)">
<stop stop-color="#F2F4FF"/>
<stop offset="0.3966" stop-color="#0BB3F6"/>
<stop offset="0.8118" stop-color="#0683EA"/>
</radialGradient>
<radialGradient id="paint5_radial_122_130" cx="0" cy="0" r="1" gradientUnits="userSpaceOnUse" gradientTransform="translate(6.7694 14.4276) rotate(-65.3161) scale(11.561 13.9986)">
<stop stop-color="#F2F4FF"/>
<stop offset="0.3966" stop-color="#0BB3F6"/>
<stop offset="0.8118" stop-color="#0683EA"/>
</radialGradient>
<radialGradient id="paint6_radial_122_130" cx="0" cy="0" r="1" gradientUnits="userSpaceOnUse" gradientTransform="translate(-17.9935 20.9861) rotate(-47.8482) scale(9.71559 11.4271)">
<stop stop-color="#F2F4FF"/>
<stop offset="0.3966" stop-color="#0BB3F6"/>
<stop offset="0.8118" stop-color="#0683EA"/>
</radialGradient>
<radialGradient id="paint7_radial_122_130" cx="0" cy="0" r="1" gradientUnits="userSpaceOnUse" gradientTransform="translate(-11.7446 24.6819) rotate(-102.679) scale(10.184 10.8874)">
<stop stop-color="#F2F4FF"/>
<stop offset="0.3966" stop-color="#0BB3F6"/>
<stop offset="0.8118" stop-color="#0683EA"/>
</radialGradient>
<radialGradient id="paint8_radial_122_130" cx="0" cy="0" r="1" gradientUnits="userSpaceOnUse" gradientTransform="translate(13.6574 -0.559154) rotate(114.684) scale(11.5603 13.9977)">
<stop stop-color="#F2F4FF"/>
<stop offset="0.3966" stop-color="#0BB3F6"/>
<stop offset="0.8118" stop-color="#0683EA"/>
</radialGradient>
<radialGradient id="paint9_radial_122_130" cx="0" cy="0" r="1" gradientUnits="userSpaceOnUse" gradientTransform="translate(15.1295 0.573921) rotate(114.684) scale(9.00045 10.8982)">
<stop stop-color="#F2F4FF"/>
<stop offset="0.3966" stop-color="#0BB3F6"/>
<stop offset="0.8118" stop-color="#0683EA"/>
</radialGradient>
<radialGradient id="paint10_radial_122_130" cx="0" cy="0" r="1" gradientUnits="userSpaceOnUse" gradientTransform="translate(13.6588 -0.558355) rotate(114.684) scale(11.5593 13.9965)">
<stop stop-color="#F2F4FF"/>
<stop offset="0.3966" stop-color="#0BB3F6"/>
<stop offset="0.8118" stop-color="#0683EA"/>
</radialGradient>
<radialGradient id="paint11_radial_122_130" cx="0" cy="0" r="1" gradientUnits="userSpaceOnUse" gradientTransform="translate(2.51818 -23.6187) rotate(97.2133) scale(9.71356 11.424)">
<stop stop-color="#F2F4FF"/>
<stop offset="0.3966" stop-color="#0BB3F6"/>
<stop offset="0.8118" stop-color="#0683EA"/>
</radialGradient>
<radialGradient id="paint12_radial_122_130" cx="0" cy="0" r="1" gradientUnits="userSpaceOnUse" gradientTransform="translate(9.37308 -21.2993) rotate(152.043) scale(10.1893 10.8932)">
<stop stop-color="#F2F4FF"/>
<stop offset="0.3966" stop-color="#0BB3F6"/>
<stop offset="0.8118" stop-color="#0683EA"/>
</radialGradient>
<radialGradient id="paint13_radial_122_130" cx="0" cy="0" r="1" gradientUnits="userSpaceOnUse" gradientTransform="translate(-2.8244 8.48387) rotate(-65.3161) scale(22.0272)">
<stop offset="0.0555556" stop-color="#FAF1D6"/>
<stop offset="0.2369" stop-color="#F8EDD3"/>
<stop offset="0.422" stop-color="#F2E1CA"/>
<stop offset="0.6089" stop-color="#E8CCBA"/>
<stop offset="0.7958" stop-color="#DAB0A5"/>
<stop offset="0.9519" stop-color="#CC928E"/>
</radialGradient>
<radialGradient id="paint14_radial_122_130" cx="0" cy="0" r="1" gradientUnits="userSpaceOnUse" gradientTransform="translate(-2.82369 8.4836) rotate(-65.3161) scale(22.0266)">
<stop offset="0.0555556" stop-color="#FAF1D6"/>
<stop offset="0.2369" stop-color="#F8EDD3"/>
<stop offset="0.422" stop-color="#F2E1CA"/>
<stop offset="0.6089" stop-color="#E8CCBA"/>
<stop offset="0.7958" stop-color="#DAB0A5"/>
<stop offset="0.9519" stop-color="#CC928E"/>
</radialGradient>
<radialGradient id="paint15_radial_122_130" cx="0" cy="0" r="1" gradientUnits="userSpaceOnUse" gradientTransform="translate(46.5738 -8.21332) rotate(121.743) scale(15.8273)">
<stop offset="0.0555556" stop-color="#FAF1D6"/>
<stop offset="0.2369" stop-color="#F8EDD3"/>
<stop offset="0.422" stop-color="#F2E1CA"/>
<stop offset="0.6089" stop-color="#E8CCBA"/>
<stop offset="0.7958" stop-color="#DAB0A5"/>
<stop offset="0.9519" stop-color="#CC928E"/>
</radialGradient>
<radialGradient id="paint16_radial_122_130" cx="0" cy="0" r="1" gradientUnits="userSpaceOnUse" gradientTransform="translate(47.1912 -11.5022) rotate(74.9424) scale(15.842)">
<stop offset="0.0555556" stop-color="#FAF1D6"/>
<stop offset="0.2369" stop-color="#F8EDD3"/>
<stop offset="0.422" stop-color="#F2E1CA"/>
<stop offset="0.6089" stop-color="#E8CCBA"/>
<stop offset="0.7958" stop-color="#DAB0A5"/>
<stop offset="0.9519" stop-color="#CC928E"/>
</radialGradient>
<radialGradient id="paint17_radial_122_130" cx="0" cy="0" r="1" gradientUnits="userSpaceOnUse" gradientTransform="translate(9.10262 12.6577) rotate(-65.3161) scale(12.4843)">
<stop stop-color="#FF5731"/>
<stop offset="0.6983" stop-color="#BA005E"/>
<stop offset="0.9478" stop-color="#5E1377"/>
</radialGradient>
<radialGradient id="paint18_radial_122_130" cx="0" cy="0" r="1" gradientUnits="userSpaceOnUse" gradientTransform="translate(9.10253 12.6579) rotate(-65.3161) scale(14.6812)">
<stop stop-color="#5E1377"/>
<stop offset="0.9972" stop-color="#8160FF"/>
</radialGradient>
<radialGradient id="paint19_radial_122_130" cx="0" cy="0" r="1" gradientUnits="userSpaceOnUse" gradientTransform="translate(-1.44245 2.82408) rotate(-65.3161) scale(6.48182)">
<stop stop-color="#FF5731"/>
<stop offset="0.6983" stop-color="#BA005E"/>
<stop offset="0.9478" stop-color="#5E1377"/>
</radialGradient>
<radialGradient id="paint20_radial_122_130" cx="0" cy="0" r="1" gradientUnits="userSpaceOnUse" gradientTransform="translate(-1.44304 2.82393) rotate(-65.3161) scale(6.48232)">
<stop stop-color="#5E1377"/>
<stop offset="0.9972" stop-color="#8160FF"/>
</radialGradient>
<linearGradient id="paint21_linear_122_130" x1="0.46943" y1="3.73488" x2="1.33363" y2="2.67712" gradientUnits="userSpaceOnUse">
<stop stop-color="#FFFF29"/>
<stop offset="1" stop-color="#FF7E59"/>
</linearGradient>
<linearGradient id="paint22_linear_122_130" x1="1.49298" y1="5.32799" x2="1.37014" y2="4.40122" gradientUnits="userSpaceOnUse">
<stop stop-color="#FFFF29"/>
<stop offset="1" stop-color="#FF7E59"/>
</linearGradient>
<radialGradient id="paint23_radial_122_130" cx="0" cy="0" r="1" gradientUnits="userSpaceOnUse" gradientTransform="translate(13.4976 8.38484) rotate(-65.3161) scale(3.6472)">
<stop offset="0.0555556" stop-color="#FAF1D6"/>
<stop offset="0.2369" stop-color="#F8EDD3"/>
<stop offset="0.422" stop-color="#F2E1CA"/>
<stop offset="0.6089" stop-color="#E8CCBA"/>
<stop offset="0.7958" stop-color="#DAB0A5"/>
<stop offset="0.9519" stop-color="#CC928E"/>
</radialGradient>
<linearGradient id="paint24_linear_122_130" x1="11.8161" y1="11.6091" x2="14.7225" y2="5.28538" gradientUnits="userSpaceOnUse">
<stop stop-color="#FFFF29"/>
<stop offset="1" stop-color="#FF7E59"/>
</linearGradient>
<linearGradient id="paint25_linear_122_130" x1="11.4573" y1="11.4441" x2="14.1988" y2="5.47928" gradientUnits="userSpaceOnUse">
<stop stop-color="#FFFF29"/>
<stop offset="1" stop-color="#FF7E59"/>
</linearGradient>
<radialGradient id="paint26_radial_122_130" cx="0" cy="0" r="1" gradientUnits="userSpaceOnUse" gradientTransform="translate(9.17872 7.49053) rotate(-65.3161) scale(6.56142)">
<stop offset="0.052173" stop-color="#5E1377"/>
<stop offset="1" stop-color="#000534"/>
</radialGradient>
<radialGradient id="paint27_radial_122_130" cx="0" cy="0" r="1" gradientUnits="userSpaceOnUse" gradientTransform="translate(9.71518 7.62622) rotate(-65.3161) scale(4.82476)">
<stop offset="0.052173" stop-color="#5E1377"/>
<stop offset="1" stop-color="#000534"/>
</radialGradient>
<radialGradient id="paint28_radial_122_130" cx="0" cy="0" r="1" gradientUnits="userSpaceOnUse" gradientTransform="translate(20.8499 11.0377) rotate(146.784) scale(10.4169)">
<stop offset="0.052173" stop-color="#5E1377"/>
<stop offset="1" stop-color="#000534"/>
</radialGradient>
<radialGradient id="paint29_radial_122_130" cx="0" cy="0" r="1" gradientUnits="userSpaceOnUse" gradientTransform="translate(23.717 8.54564) rotate(99.9851) scale(10.4222)">
<stop offset="0.052173" stop-color="#5E1377"/>
<stop offset="1" stop-color="#000534"/>
</radialGradient>
<radialGradient id="paint30_radial_122_130" cx="0" cy="0" r="1" gradientUnits="userSpaceOnUse" gradientTransform="translate(7.4644 5.61268) rotate(-65.3161) scale(2.54573)">
<stop offset="0.0555556" stop-color="#FAF1D6"/>
<stop offset="0.2369" stop-color="#F8EDD3"/>
<stop offset="0.422" stop-color="#F2E1CA"/>
<stop offset="0.6089" stop-color="#E8CCBA"/>
<stop offset="0.7958" stop-color="#DAB0A5"/>
<stop offset="0.9519" stop-color="#CC928E"/>
</radialGradient>
<linearGradient id="paint31_linear_122_130" x1="6.29072" y1="7.86145" x2="8.31867" y2="3.44911" gradientUnits="userSpaceOnUse">
<stop stop-color="#FFFF29"/>
<stop offset="1" stop-color="#FF7E59"/>
</linearGradient>
<linearGradient id="paint32_linear_122_130" x1="6.04118" y1="7.74693" x2="7.95437" y2="3.58427" gradientUnits="userSpaceOnUse">
<stop stop-color="#FFFF29"/>
<stop offset="1" stop-color="#FF7E59"/>
</linearGradient>
<radialGradient id="paint33_radial_122_130" cx="0" cy="0" r="1" gradientUnits="userSpaceOnUse" gradientTransform="translate(4.45015 4.98841) rotate(-65.3161) scale(4.57837)">
<stop offset="0.052173" stop-color="#5E1377"/>
<stop offset="1" stop-color="#000534"/>
</radialGradient>
<radialGradient id="paint34_radial_122_130" cx="0" cy="0" r="1" gradientUnits="userSpaceOnUse" gradientTransform="translate(4.82431 5.08203) rotate(-65.3161) scale(3.36701)">
<stop offset="0.052173" stop-color="#5E1377"/>
<stop offset="1" stop-color="#000534"/>
</radialGradient>
<radialGradient id="paint35_radial_122_130" cx="0" cy="0" r="1" gradientUnits="userSpaceOnUse" gradientTransform="translate(12.5957 7.46499) rotate(146.783) scale(7.27054)">
<stop offset="0.052173" stop-color="#5E1377"/>
<stop offset="1" stop-color="#000534"/>
</radialGradient>
<radialGradient id="paint36_radial_122_130" cx="0" cy="0" r="1" gradientUnits="userSpaceOnUse" gradientTransform="translate(14.5998 5.7252) rotate(99.9851) scale(7.27715)">
<stop offset="0.052173" stop-color="#5E1377"/>
<stop offset="1" stop-color="#000534"/>
</radialGradient>
</defs>
</svg>
