<svg width="27" height="22" viewBox="0 0 27 22" fill="none" xmlns="http://www.w3.org/2000/svg">
<circle cx="7.99084" cy="13.9875" r="7.83557" fill="#13DED2"/>
<path d="M20.9559 8.36718C20.9482 8.36718 20.9404 8.36718 20.9328 8.36722C19.0557 8.37514 17.4038 9.35013 16.4551 10.8478H10.734V10.5786V9.58189C10.734 9.18306 10.4095 8.85862 10.0107 8.85862H8.52296C8.12412 8.85862 7.79968 9.1831 7.79968 9.58189V10.5786V10.8478H7.56768C6.69846 10.8478 5.99134 10.1406 5.99134 9.27141V6.92923C5.99134 6.06002 6.69846 5.35286 7.56768 5.35286H22.4269C23.2961 5.35286 24.0032 6.06002 24.0032 6.92923V8.56058C24.0032 8.7297 24.1403 8.86678 24.3094 8.86678C24.4785 8.86678 24.6156 8.7297 24.6156 8.56058V6.92923C24.6156 5.72235 23.6337 4.74046 22.4268 4.74046H19.168V3.37442C19.168 2.02561 18.0706 0.928223 16.7218 0.928223H13.2727C11.9239 0.928223 10.8265 2.02561 10.8265 3.37442V4.74046H7.56768C6.36076 4.74046 5.37891 5.72235 5.37891 6.92923V16.2201C5.37891 17.427 6.36076 18.4088 7.56768 18.4088H16.8636C17.0327 18.4088 17.1698 18.2718 17.1698 18.1026C17.1698 17.9335 17.0327 17.7964 16.8636 17.7964H7.56768C6.69846 17.7964 5.99134 17.0893 5.99134 16.2201V10.7875C6.38981 11.2017 6.94895 11.4602 7.56768 11.4602H7.79968V11.7857C7.79968 12.5913 8.45448 13.2528 9.26685 13.2528C10.0725 13.2528 10.734 12.598 10.734 11.7857V11.4602H16.1219C15.8011 12.1559 15.6334 12.9192 15.6368 13.7081C15.6491 16.6332 18.0326 19.0043 20.9549 19.0042C20.9624 19.0042 20.9701 19.0042 20.9776 19.0041C23.917 18.9917 26.2861 16.603 26.2737 13.6632C26.2615 10.7676 23.9178 8.36718 20.9559 8.36718ZM17.2953 4.74046H12.6991V3.37442C12.6991 3.05815 12.9564 2.8008 13.2727 2.8008H16.7218C17.0381 2.8008 17.2954 3.0581 17.2954 3.37442V4.74046H17.2953ZM11.4389 3.37442C11.4389 2.36327 12.2616 1.54062 13.2727 1.54062H16.7218C17.733 1.54062 18.5556 2.36327 18.5556 3.37442V4.74046H17.9078V3.37442C17.9078 2.72044 17.3758 2.1884 16.7218 2.1884H13.2727C12.6187 2.1884 12.0867 2.72044 12.0867 3.37442V4.74046H11.4389V3.37442ZM8.52296 9.47101H10.0107C10.0719 9.47101 10.1216 9.52076 10.1216 9.58189V10.2724H8.41208V9.58189C8.41208 9.52072 8.46183 9.47101 8.52296 9.47101ZM8.41208 11.7857V10.8848H10.1216V11.7857C10.1216 12.257 9.73812 12.6404 9.26681 12.6404C8.79549 12.6404 8.41208 12.257 8.41208 11.7857ZM20.9751 18.3917C20.9683 18.3918 20.9617 18.3918 20.9549 18.3918C18.3693 18.3917 16.2601 16.2937 16.2492 13.7055C16.2382 11.1095 18.3283 8.99064 20.9354 8.97962C20.9422 8.97958 20.949 8.97958 20.9558 8.97958C23.5114 8.97958 25.6502 11.0389 25.6613 13.6658C25.6722 16.2667 23.5763 18.3808 20.9751 18.3917Z" fill="white"/>
<path d="M20.956 9.51074C20.9501 9.51074 20.944 9.51074 20.9381 9.51078C18.86 9.51956 17.1083 11.057 16.8214 13.1002C16.7979 13.2676 16.9145 13.4224 17.082 13.446C17.2492 13.4692 17.4043 13.3528 17.4278 13.1854C17.6731 11.4388 19.1712 10.1306 20.9406 10.1232C20.9458 10.1232 20.9509 10.1231 20.9561 10.1231C22.8908 10.1231 24.5099 11.6821 24.5183 13.6708C24.5267 15.6398 22.9399 17.2402 20.9707 17.2485C20.9654 17.2485 20.9602 17.2486 20.9549 17.2486C19.2377 17.2486 17.8491 16.0452 17.4872 14.5039C17.4485 14.3392 17.2835 14.2373 17.1191 14.2758C16.9545 14.3144 16.8524 14.4792 16.891 14.6439C17.3231 16.4836 18.9767 17.861 20.9558 17.861C20.9616 17.861 20.9674 17.861 20.9732 17.8609C23.2807 17.8512 25.1405 15.976 25.1307 13.6683C25.1211 11.372 23.2501 9.51074 20.956 9.51074Z" fill="white"/>
<path d="M20.0029 13.6898C20.0052 14.2132 20.4316 14.6374 20.9545 14.6374H20.9585C21.1136 14.6367 21.2628 14.5991 21.3962 14.529L22.1697 15.2651C22.2928 15.3822 22.4866 15.3764 22.6026 15.2544C22.7192 15.132 22.7144 14.9381 22.5919 14.8216L21.8186 14.0855C21.8765 13.9606 21.9067 13.8236 21.9061 13.6818C21.9043 13.2644 21.6325 12.9103 21.2572 12.7839L21.2504 10.9935C21.2498 10.8248 21.1128 10.6885 20.9443 10.6885C20.9439 10.6885 20.9434 10.6885 20.9431 10.6885C20.774 10.6891 20.6374 10.8267 20.638 10.9959L20.6448 12.7862C20.2704 12.9155 20.0012 13.2721 20.0029 13.6898ZM20.9531 13.3466H20.9545C21.1408 13.3466 21.2929 13.4979 21.2937 13.6844C21.2945 13.8718 21.1434 14.0242 20.9559 14.025C20.9554 14.025 20.955 14.025 20.9545 14.025C20.7682 14.025 20.6161 13.8738 20.6153 13.6873C20.6146 13.5003 20.7661 13.3474 20.9531 13.3466Z" fill="white"/>
</svg>
