<svg width="23" height="24" viewBox="0 0 23 24" fill="none" xmlns="http://www.w3.org/2000/svg">
<ellipse cx="7.92639" cy="16.0771" rx="7.83557" ry="7.83545" fill="#FCD25F"/>
<path d="M7.47545 7.32052H15.6934C15.9106 7.32052 16.0869 7.1443 16.0869 6.92711C16.0869 6.70977 15.9106 6.53369 15.6934 6.53369H7.47545C7.25825 6.53369 7.08203 6.70977 7.08203 6.92711C7.08203 7.1443 7.25825 7.32052 7.47545 7.32052Z" fill="white"/>
<path d="M7.47545 9.94332H15.6934C15.9106 9.94332 16.0869 9.76711 16.0869 9.54991C16.0869 9.33257 15.9106 9.15649 15.6934 9.15649H7.47545C7.25825 9.15649 7.08203 9.33257 7.08203 9.54991C7.08203 9.76711 7.25825 9.94332 7.47545 9.94332Z" fill="white"/>
<path d="M15.6934 12.1289C15.9106 12.1289 16.0869 11.9527 16.0869 11.7356C16.0869 11.5183 15.9106 11.3423 15.6934 11.3423H7.47545C7.25825 11.3423 7.08203 11.5183 7.08203 11.7356C7.08203 11.9527 7.25825 12.1289 7.47545 12.1289H15.6934Z" fill="white"/>
<path d="M22.0306 15.5336C22.0307 14.7641 21.4435 14.1218 20.677 14.053C19.9107 13.9842 19.2185 14.5119 19.0819 15.2693C18.945 16.0264 19.4088 16.7627 20.1509 16.9665V19.2105H18.5336V4.30447C18.5336 4.08714 18.3574 3.91106 18.1402 3.91106H15.9108V1.32176C15.9108 1.10456 15.7346 0.928345 15.5174 0.928345H7.6491C7.4319 0.928345 7.25569 1.10456 7.25569 1.32176V3.91106H5.02634C4.80914 3.91106 4.63292 4.08714 4.63292 4.30447V19.2105H3.01555V16.9665C3.73299 16.7696 4.19443 16.0722 4.09498 15.3348C3.99567 14.5973 3.36621 14.0471 2.62214 14.0471C1.87793 14.0471 1.2486 14.5973 1.14916 15.3348C1.04985 16.0722 1.51115 16.7696 2.22872 16.9665V19.2105H1.52932C1.31212 19.2105 1.13591 19.3866 1.13591 19.6039C1.13591 19.8211 1.31212 19.9973 1.52932 19.9973H21.6372C21.8544 19.9973 22.0306 19.8211 22.0306 19.6039C22.0306 19.3866 21.8544 19.2105 21.6372 19.2105H20.9378V16.9665C21.5827 16.7887 22.0298 16.2025 22.0306 15.5336ZM1.92273 15.5336C1.92273 15.1473 2.23583 14.8342 2.62214 14.8342C3.00831 14.8342 3.32154 15.1473 3.32154 15.5336C3.32154 15.9198 3.00831 16.233 2.62214 16.233C2.2361 16.2324 1.92328 15.9196 1.92273 15.5336ZM8.04252 1.71517H15.124V3.91106H8.04252V1.71517ZM5.41975 4.69788H17.7467V19.2105H15.4737V18.1264C15.4737 17.9092 15.2975 17.733 15.0803 17.733H14.3809V13.9882C14.3809 13.7709 14.2046 13.5948 13.9874 13.5948H9.17905C8.96185 13.5948 8.78563 13.7709 8.78563 13.9882V17.733H8.08623C7.86903 17.733 7.69281 17.9091 7.69281 18.1264V19.2105H5.41975V4.69788ZM13.594 17.733H11.9767V14.3816H13.594V17.733ZM11.1898 17.733H9.57246V14.3816H11.1898V17.733ZM14.6869 18.5198V19.2105H8.47964V18.5198H14.6869ZM19.845 15.5336C19.845 15.1473 20.158 14.8342 20.5444 14.8342C20.9305 14.8342 21.2438 15.1473 21.2438 15.5336C21.2438 15.9198 20.9305 16.233 20.5444 16.233C20.1583 16.2324 19.8455 15.9196 19.845 15.5336Z" fill="white"/>
</svg>
