<svg width="23" height="26" viewBox="0 0 23 26" fill="none" xmlns="http://www.w3.org/2000/svg">
<circle cx="7.92639" cy="17.2383" r="7.83557" fill="#1AC8F9"/>
<path d="M17.654 7.6085C18.4315 8.94998 18.8425 10.4829 18.8425 12.0414C18.8425 14.4063 17.9216 16.6296 16.2494 18.3017C14.5772 19.9739 12.3539 20.8948 9.98914 20.8948C7.62432 20.8948 5.40102 19.9739 3.72886 18.3017C2.05666 16.6296 1.13574 14.4063 1.13574 12.0414C1.13574 9.6766 2.05666 7.4533 3.72886 5.78115C5.40106 4.10899 7.62432 3.18803 9.98914 3.18803C11.5478 3.18803 13.0807 3.59903 14.4221 4.37658C14.5781 4.46702 14.6313 4.66678 14.5409 4.82276C14.4504 4.97878 14.2506 5.03191 14.0947 4.94152C12.8526 4.22154 11.433 3.84103 9.98919 3.84103C5.46742 3.84099 1.78871 7.5197 1.78871 12.0414C1.78871 16.5632 5.46742 20.2419 9.98914 20.2419C14.5109 20.2419 18.1896 16.5632 18.1896 12.0415C18.1896 10.5978 17.809 9.1781 17.0891 7.93596C16.9986 7.77999 17.0518 7.58022 17.2078 7.48979C17.3637 7.39935 17.5636 7.45249 17.654 7.6085ZM21.9349 4.16478L19.1645 6.93522C19.1025 6.99725 19.0191 7.03084 18.9336 7.03084C18.9055 7.03084 18.8771 7.0272 18.8492 7.01973L16.1862 6.30617L10.22 12.2723C10.1563 12.336 10.0727 12.3679 9.98914 12.3679C9.90556 12.3679 9.82203 12.336 9.75828 12.2723C9.63079 12.1448 9.63079 11.9381 9.75828 11.8106L15.7244 5.84444L15.0109 3.18146C14.9807 3.06878 15.0129 2.94855 15.0954 2.86607L17.8658 0.0956344C17.9483 0.0131571 18.0685 -0.0190422 18.1812 0.0111166C18.2939 0.0413161 18.3818 0.129303 18.412 0.24198L19.1256 2.90497L21.7886 3.61849C21.9013 3.64869 21.9893 3.73668 22.0195 3.84935C22.0497 3.96203 22.0174 4.0823 21.9349 4.16478ZM21.0734 4.10291L18.7745 3.48692C18.6618 3.45672 18.5738 3.36873 18.5436 3.25606L17.9276 0.957219L15.6903 3.19451L16.3551 5.67545L18.836 6.3402L21.0734 4.10291ZM9.98914 7.46828C10.669 7.46828 11.3233 7.61405 11.934 7.90152C12.0971 7.97824 12.2917 7.9083 12.3684 7.74518C12.4452 7.58202 12.3752 7.38756 12.2121 7.31075C11.5138 6.98203 10.7658 6.81532 9.98914 6.81532C7.10746 6.81532 4.76303 9.15974 4.76303 12.0414C4.76303 14.9231 7.10746 17.2675 9.98914 17.2675C12.8708 17.2675 15.2153 14.9231 15.2153 12.0414C15.2153 11.2649 15.0486 10.5169 14.7198 9.8185C14.6431 9.65538 14.4486 9.58539 14.2854 9.66211C14.1222 9.73892 14.0522 9.93338 14.129 10.0965C14.4165 10.7073 14.5623 11.3617 14.5623 12.0414C14.5623 14.563 12.5108 16.6145 9.9891 16.6145C7.46744 16.6145 5.41595 14.563 5.41595 12.0414C5.41595 9.51973 7.46748 7.46828 9.98914 7.46828Z" fill="white"/>
</svg>
