<svg width="459" height="338" viewBox="0 0 459 338" fill="none" xmlns="http://www.w3.org/2000/svg">
<path opacity="0.4" fill-rule="evenodd" clip-rule="evenodd" d="M60.7001 223.4C73.8001 226.1 95.0001 222.1 101.5 221.1C100.5 219.3 99.6001 217.4 98.9001 215.5C93.0001 215.6 85.3001 214.6 86.2001 208.5C87.6001 198.8 124.5 169.3 156.5 145.7C188.5 122.1 144.9 98.8 233 77.7C250.1 73.6 267.6 70 285.2 69.3C291.5 69 319.9 69.6 311.1 81.8C309.1 84.5 304 88.2 301.1 86.5C300.9 86.3 300.9 86.3 301.1 86.5C304.4 88.9 306.5 92.1 306.5 92.1C306.5 92.1 314.4 86.8 316.5 84.1C319.3 80.6 322 77.7001 321.1 73.1001C318.9 62.3001 300.4 63.1 291.6 62.9C276.7 62.6 260.8 57.3001 246 59.1001C207.4 63.8001 188.8 77.5 165.3 91.9C150.2 101.2 141.9 116.2 130.2 128.9C117.3 142.9 101.1 153.9 88.5001 168.1C80.9001 176.6 72.8001 184.3 64.7001 192.1C59.6001 197.1 52.1001 204 50.5001 211.1C48.7001 218.3 53.4001 221.9 60.7001 223.4Z" fill="url(#paint0_radial_932_742)"/>
<path opacity="0.4" d="M256.2 291.3C256.5 289.4 256.5 287.6 255.2 285.7C253.1 282.4 249.2 281.2 245.8 279.9C245.4 279.8 236.2 275.9 238.4 274.4C232.8 278.3 226.9 282.5 221.8 287C227.5 289.8 233.5 288.9 239.4 290.8C247.6 293.5 245.8 295 249.4 301C252.7 306.6 251.6 310.1 260.4 311C264.5 311.4 272.2 308.5 276.4 307C289.2 302.3 304.7 290.6 313.2 280C318.9 272.9 320.6 263.8 325.4 256.3C337.8 236.8 356.3 228 374.6 215.5C391.6 204 407.1 190.3 421.1 175.4C428.9 167.1 472 121.7 453.9 108.6C441.1 99.3001 414.9 109.8 400.9 111.1C387 112.4 367.4 111.3 355.9 102.6C328.2 81.6001 344.7 53.4 336.3 26.2C331.2 9.60004 315.2 2.50005 299.1 0.800049C249.1 -4.49995 232.4 21.5001 196.4 30.1001C160.4 38.8001 127.1 29.4001 89.7001 53.4001C52.3001 77.4001 45.7001 111.4 45.7001 111.4L50.0002 120.7C50.0002 120.7 90.3002 44.7001 135 41.4001C159.4 39.6001 183 52.1 207.4 47.7C241.5 41.6 286.5 17.3001 313.4 52.0001C316.8 56.4001 321 60.8001 322.9 66.0001C325.6 73.5001 324.5 82.1001 327.6 89.7001C331.9 100.4 340.7 112.7 350.9 118.2C363.1 124.8 378.6 122.4 390.4 129.8C403.9 138.2 404.4 156.9 399 170C387.9 197.4 366.9 214.8 341.8 227C327.9 233.8 318.4 251.6 311.4 264.9C307.1 273.1 302.1 280.6 295.9 287.4C288.2 295.9 282.4 299.1 271.7 302.1C265.5 303.9 253.5 307.5 255.2 295.9C255.5 294.4 256 292.8 256.2 291.3Z" fill="url(#paint1_radial_932_742)"/>
<path opacity="0.4" d="M184.4 284.7C181.7 284 151.7 284 131.1 296.7C110.5 309.4 79.4001 344.6 44.4001 336C-12.5999 322 10.4001 289 26.4001 275.5C40.6001 263.5 94.4001 247.3 107.1 235.3C119.8 223.3 137.1 199.3 163.8 195.3C190.5 191.3 279.3 174.6 300 169C320.7 163.4 359.5 154.8 365.5 165.5C371.5 176.2 329.2 204.7 329.2 204.7L330.5 197.4C330.5 197.4 355.2 184.1 345.8 178.7C336.4 173.3 302 180.9 288.5 188C274.9 195.1 233.8 206.7 214.5 204.7C195.2 202.7 170.8 215.2 153.5 234.5C136.2 253.8 116.2 261.3 89.5002 268C62.8002 274.7 37.3001 294.2 53.2001 306.8C69.1001 319.4 104.4 302.7 120.4 289.4C136.4 276.1 165.7 282.1 165.7 282.1L184.4 284.7Z" fill="url(#paint2_radial_932_742)"/>
<g clip-path="url(#clip0_932_742)">
<path d="M44.5001 77.4001C44.5001 77.4001 67.7001 78.4001 63.4001 118.6C63.4001 118.6 22.8001 106.9 33.0001 85.0001C34.5001 81.8001 39.4001 76.8001 44.5001 77.4001Z" fill="url(#paint3_radial_932_742)"/>
<path d="M43.1001 78.1001C43.1001 78.1001 60.3001 78.9001 57.1001 110.5C57.1001 110.5 26.4002 101.2 33.9002 83.9001C35.0002 81.4001 39.2001 77.6001 43.1001 78.1001Z" fill="url(#paint4_radial_932_742)"/>
<path d="M40.4 79.2001C40.4 79.2001 50 79.6001 48.2 97.2001C48.2 97.2001 31.1 92.0001 35.3 82.4001C35.9 81.0001 38.2 78.9001 40.4 79.2001Z" fill="url(#paint5_radial_932_742)"/>
<path d="M52.4 76.3C48.7 68 36.1 50 50.9 51.3C56.2 51.7 61 55.3 64.6 59.9C75.9 74.4 69.9 84.5 69.9 84.5C69.9 84.5 68.6 88.6 62 79.6C55.4 70.5 52.4 76.3 52.4 76.3Z" fill="url(#paint6_radial_932_742)"/>
<path d="M48.7 59.3001C49 59.2001 49.3 59.2001 49.7 59.2001C50.6 59.3001 51.6 59.8001 52.5 60.2001C53.6 60.8001 57 62.5001 57.7 63.7001C57.7 63.6001 57.5 63.5001 57.5 63.5001C61 66.5001 64.5 70.6001 66.3 75.0001C67.1 76.9001 68.8 80.4001 67.3 82.0001C65.6 83.8001 62.9 79.7001 61.8 78.2001C56.5 70.9001 54.1 75.5001 54.1 75.5001C52.3 71.6001 48.1 65.0001 47.4 60.4001C48 59.9001 48.2 59.5001 48.7 59.3001Z" fill="url(#paint7_radial_932_742)"/>
<path d="M45.6001 62.6C45.6001 62.6 45.6001 62.7 45.7001 62.7C47.2001 65.8 49.6001 68.7 52.4001 70.2C54.3001 71.2 56.3001 72.2 58.2001 72.9C59.8001 73.5 61.6001 73.9 63.2001 73.9C64.5001 73.8 65.9001 73.9 67.0001 73.5C68.5001 72.9 69.7001 72.5 70.7001 71.8C72.7001 79.7 69.8001 84.5 69.8001 84.5C69.8001 84.5 68.5001 88.6 61.9001 79.6C55.3001 70.5 52.3001 76.3 52.3001 76.3C50.8001 72.7 47.6001 67.4 45.6001 62.6Z" fill="url(#paint8_radial_932_742)"/>
<path d="M50.2001 56.9C51.1001 57.1 52.3001 57.2 52.8001 57.1C56.0001 56.6 54.7001 53.7 51.6001 54C50.6001 54.1 49.7001 54.5 49.3001 55C48.3001 56.1 49.1001 56.6 50.2001 56.9Z" fill="url(#paint9_radial_932_742)"/>
<path d="M56.4 56.8C56.6 57.4 57.3 58.2 57.8 58.5C59 59.5 60.6 59.2 59.5 57.4C59.1 56.6 57.8 55.6 57 55.8C56.3 56 56.2 56.4 56.4 56.8Z" fill="url(#paint10_radial_932_742)"/>
<path d="M28.4001 91.7001C22.4001 84.9001 11.3 66.0001 6.20004 79.9001C4.40005 84.9001 5.60005 90.7001 8.40005 95.9001C16.9 112.3 28.6 110.9 28.6 110.9C28.6 110.9 32.9001 111.5 27.4001 101.7C22 92.0001 28.4001 91.7001 28.4001 91.7001Z" fill="url(#paint11_radial_932_742)"/>
<path d="M14.6 81.3001C14.4 81.5001 14.3 81.8001 14.1 82.2001C13.8 83.1001 13.8 84.2001 13.9 85.2001C14 86.5001 14.1 90.3001 14.9 91.3001C14.9 91.2001 14.8 91.1001 14.8 91.0001C16 95.4001 18.3 100.4 21.6 103.8C23 105.3 25.5 108.3 27.5 107.6C29.8 106.8 27.2 102.6 26.4 101C22 93.1001 27.2 92.9001 27.2 92.9001C24.4 89.7001 20.1 83.1001 16.2 80.5001C15.4 80.8001 14.9 80.9001 14.6 81.3001Z" fill="url(#paint12_radial_932_742)"/>
<path d="M18.8 79.8C18.8 79.8 18.8 79.9001 18.9001 79.9001C21.1 82.5001 22.7001 85.9 22.9001 89.1C23.1 91.3 23.1 93.4 22.9001 95.5C22.7001 97.2001 22.4 99.0001 21.7 100.4C21.1 101.5 20.6 102.8 19.7 103.7C18.5 104.8 17.7 105.7 16.6 106.4C22.9 111.5 28.6 110.9 28.6 110.9C28.6 110.9 32.9001 111.5 27.4001 101.7C21.9001 91.9 28.4001 91.6 28.4001 91.6C25.9001 88.7 22.4 83.6 18.8 79.8Z" fill="url(#paint13_radial_932_742)"/>
<path d="M11.8 81.6001C11.6 82.5001 11.2 83.6001 10.9 84.0001C9.10005 86.7001 7.00004 84.3001 8.60004 81.6001C9.10004 80.8001 9.80005 80.1001 10.5 79.9001C11.7 79.5001 12 80.5001 11.8 81.6001Z" fill="url(#paint14_radial_932_742)"/>
<path d="M9.09997 87.2001C9.59997 87.7001 9.89997 88.6001 10.1 89.2001C10.5 90.7001 9.59998 92.1001 8.39998 90.3001C7.89998 89.6001 7.39997 88.0001 7.99997 87.3001C8.29997 86.8001 8.79997 86.9001 9.09997 87.2001Z" fill="url(#paint15_radial_932_742)"/>
<path d="M3.90004 27.7C4.90004 27 6.30004 26.9 7.80004 27.1C21.9 28.7 35 37.4 43.2 50.2C46.3 55 49.3 60 51.6 65.2C53.8 70.1 54.5 74 52.7 78.8C49.5 87 39.3 93.5 30.5 93C25.4 92.7 22.2 90.4 18.6 86.4C14.8 82.1 11.5 77.3 8.40004 72.5C5.70004 68.3 3.60004 63.8 2.10004 59.2C-0.0999641 52.1 -0.59996 44.7 0.500038 37.7C0.90004 35 1.50004 32.1 2.40004 29.6C2.80004 28.7 3.20004 28.1 3.90004 27.7Z" fill="url(#paint16_radial_932_742)"/>
<path opacity="0.5" d="M2.2001 59.1C2.0001 58.5 1.80009 57.8 1.7001 57.2C4.30009 61.8 7.3001 66.2 10.6001 70.2C15.9001 76.6 22.0001 83 30.4001 84.9C38.9001 86.7 47.2001 83.4 52.7001 76.9C52.8001 76.8 52.9001 76.7 52.9001 76.6C53.0001 76.5 53.1001 76.3 53.3001 76.2C53.4001 76 53.5001 75.9 53.6001 75.7C53.4001 76.7 53.2001 77.7 52.8001 78.8C49.5001 87 39.3001 93.5 30.5001 93C25.4001 92.7 22.2001 90.4 18.6001 86.4C14.8001 82.1 11.5001 77.3 8.4001 72.5C5.8001 68.3 3.6001 63.8 2.2001 59.1Z" fill="url(#paint17_radial_932_742)"/>
<g opacity="0.4">
<path opacity="0.4" d="M28.6001 86.7C27.8001 86.5 26.7001 86.4 26.2001 86.4C23.1001 86.7 23.8001 89.2 26.7001 89.1C27.6001 89.1 28.6001 88.8 29.1001 88.4C30.2001 87.5 29.6001 87 28.6001 86.7Z" fill="url(#paint18_radial_932_742)"/>
<path opacity="0.4" d="M22.7 86.5C22.6 85.9 22.1 85.3 21.7 85C20.7 84.1 19.2 84.3 19.8 85.9C20.1 86.6 21.1 87.6 21.9 87.4C22.6 87.2 22.8 86.9 22.7 86.5Z" fill="url(#paint19_radial_932_742)"/>
</g>
<path d="M30.5 93C27.6 92.8 25.2 92 23.1 90.5C27.1 90.8 32.6 90.1 39.9 85.6C47.5 80.9 51.5 75.7 53.6 72.3C53.8 74.4 53.5 76.5 52.6 78.8C49.5 87 39.3 93.5 30.5 93Z" fill="url(#paint20_radial_932_742)"/>
<path opacity="0.3" d="M41 85.5C45.2 84 49 81.8 52.5 79.1C49.2 87.2 39.2 93.6 30.5 93C27.6 92.8 25.2 92 23.1 90.5C26.8 90.8 31.8 90.2 38.4 86.5C39.3 86.2 40.1 85.8 41 85.5Z" fill="url(#paint21_radial_932_742)"/>
<path d="M11.9001 41.1001C8.00005 43.6001 3.90005 45.3001 4.95911e-05 46.3001C-0.0999508 43.4001 0.10005 40.5001 0.50005 37.6001C0.900049 34.9001 1.50005 32.0001 2.40005 29.5001C2.70005 28.6001 3.20005 28.0001 3.80005 27.6001C4.80005 26.9001 6.20005 26.8001 7.70005 27.0001C12.8001 27.6001 17.7 29.1001 22.3 31.4001C19.8 35.0001 16.3001 38.4001 11.9001 41.1001Z" fill="url(#paint22_radial_932_742)"/>
<path opacity="0.3" d="M0.50005 37.7001C2.60005 39.0001 5.20005 39.5001 7.60005 38.7001C11.1 37.4001 15.3 35.6001 17.6 32.4001C17.8 32.1001 18.0001 31.8001 18.2001 31.4001C18.6001 31.0001 18.9 30.5001 19.3 30.0001C20.3 30.4001 21.3 30.9001 22.3 31.3001C19.7 34.9001 16.1 38.2001 11.8 41.0001C7.90005 43.5001 3.80005 45.2001 -0.0999489 46.2001C5.14984e-05 43.4001 0.10005 40.6001 0.50005 37.7001Z" fill="url(#paint23_radial_932_742)"/>
<g opacity="0.5">
<path opacity="0.5" d="M6.10004 31.1C7.00004 31.2 8.10004 31.2 8.50004 31.1C11.5 30.4 10.5 28 7.60004 28.5C6.70004 28.6 5.80004 29.1 5.30004 29.6C4.50004 30.5 5.20004 30.9 6.10004 31.1Z" fill="url(#paint24_linear_932_742)"/>
<path opacity="0.5" d="M12.1001 30.5C12.3001 31 12.9001 31.6 13.3001 31.9C14.4001 32.7 15.9001 32.3 15.0001 30.8C14.6001 30.2 13.5001 29.3 12.7001 29.6C12.1001 29.7 11.9001 30.1 12.1001 30.5Z" fill="url(#paint25_linear_932_742)"/>
</g>
<path d="M20.8999 77.0001C24.6999 82.8001 32.3999 84.6001 38.1999 80.8001C43.9999 77.1001 45.6999 69.3001 41.8999 63.5001C38.0999 57.7001 30.3999 55.9001 24.5999 59.7001C18.7999 63.4001 17.0999 71.1001 20.8999 77.0001Z" fill="url(#paint26_radial_932_742)"/>
<path d="M21.3999 75.9C24.9999 81.5 32.3999 83.1 37.8999 79.5C43.4999 75.9 45.0999 68.5 41.4999 63C37.8999 57.4 30.4999 55.8 24.9999 59.4C19.4999 62.9 17.8999 70.3 21.3999 75.9Z" fill="url(#paint27_linear_932_742)"/>
<path d="M21.3 73.2001C20.3 71.7001 19.8 70.0001 19.6 68.3001C19.9 64.8001 21.8 61.4001 25 59.3001C30.6 55.7001 37.9 57.3001 41.5 62.9001C41.8 63.3001 42 63.7001 42.2 64.1001C43.4 68.8001 41.5 73.9001 37.3 76.6001C31.9 80.1001 24.8 78.6001 21.3 73.2001Z" fill="url(#paint28_linear_932_742)"/>
<path d="M23.5 74.5C26.3 78.9 32.2 80.2 36.6 77.3C41 74.5 42.3 68.6 39.4 64.2C36.6 59.8 30.7 58.5 26.3 61.4C22 64.3 20.7 70.1 23.5 74.5Z" fill="url(#paint29_radial_932_742)"/>
<path d="M24.9999 71.4C27.0999 74.6 31.3999 75.6 34.5999 73.5C37.7999 71.4 38.7999 67.1 36.6999 63.9C34.5999 60.7 30.2999 59.7 27.0999 61.8C23.7999 63.9 22.8999 68.1 24.9999 71.4Z" fill="url(#paint30_radial_932_742)"/>
<path d="M35.1 74.7001C34.4 74.8001 33.5 75.1001 33.2 75.3001C30.9 76.6001 32.4 78.3001 34.6 77.2001C35.3 76.9001 35.9 76.3001 36.1 75.8001C36.6 74.8001 36 74.6001 35.1 74.7001Z" fill="url(#paint31_radial_932_742)"/>
<path d="M30.5 76.7001C30.2 76.3001 29.6 76.0001 29.2 75.9001C28.1 75.6001 27 76.2001 28.1 77.2001C28.6 77.6001 29.7 78.0001 30.2 77.6001C30.7 77.3001 30.7 76.9001 30.5 76.7001Z" fill="url(#paint32_radial_932_742)"/>
<path d="M11.6999 55.8001C14.2999 59.9001 19.6999 61.1001 23.7999 58.5001C27.7999 55.9001 28.9999 50.5001 26.3999 46.4001C23.7999 42.3001 18.3999 41.1001 14.2999 43.7001C10.2999 46.3001 9.09987 51.7001 11.6999 55.8001Z" fill="url(#paint33_radial_932_742)"/>
<path d="M12.0998 55C14.5998 58.9 19.6998 60 23.5998 57.5C27.4998 55 28.5998 49.9 26.0998 46C23.5998 42.1 18.4998 41 14.5998 43.5C10.7998 46 9.59982 51.1 12.0998 55Z" fill="url(#paint34_linear_932_742)"/>
<path d="M12.1 53.1001C11.4 52.0001 11 50.9001 10.9 49.7001C11.1 47.2001 12.4 44.9001 14.7 43.4001C18.6 40.9001 23.7 42.0001 26.2 45.9001C26.4 46.2001 26.5 46.5001 26.7 46.7001C27.5 50.0001 26.2 53.5001 23.2 55.4001C19.4 58.0001 14.5 56.9001 12.1 53.1001Z" fill="url(#paint35_linear_932_742)"/>
<path d="M13.6 54C15.6 57.1 19.6 58 22.7 56C25.8 54 26.7 50 24.7 46.9C22.7 43.8 18.7 42.9 15.6 44.9C12.5 46.9 11.6 51 13.6 54Z" fill="url(#paint36_radial_932_742)"/>
<path d="M14.5999 51.8C15.9999 54.1 18.9999 54.7 21.2999 53.3C23.5999 51.9 24.1999 48.9 22.7999 46.6C21.3999 44.3 18.3999 43.7 16.0999 45.1C13.7999 46.6 13.0999 49.6 14.5999 51.8Z" fill="url(#paint37_radial_932_742)"/>
<path d="M21.7 54.2C21.2 54.3 20.6 54.5 20.4 54.7C18.8 55.6 19.8 56.8 21.4 56C21.9 55.8 22.3 55.4 22.5 55C22.7 54.2 22.3 54.1 21.7 54.2Z" fill="url(#paint38_radial_932_742)"/>
<path d="M18.5 55.5001C18.3 55.2001 17.9 55.0001 17.6 54.9001C16.8 54.7001 16.1 55.1001 16.8 55.8001C17.1 56.1001 17.9 56.4001 18.3 56.1001C18.6 56.0001 18.6 55.7001 18.5 55.5001Z" fill="url(#paint39_radial_932_742)"/>
</g>
<defs>
<radialGradient id="paint0_radial_932_742" cx="0" cy="0" r="1" gradientUnits="userSpaceOnUse" gradientTransform="translate(620.052 161.445) rotate(153.521) scale(590.839 520.64)">
<stop stop-color="#FF5731"/>
<stop offset="0.3795" stop-color="#BA005E"/>
<stop offset="0.7072" stop-color="#621276"/>
<stop offset="0.9972" stop-color="#8160FF"/>
</radialGradient>
<radialGradient id="paint1_radial_932_742" cx="0" cy="0" r="1" gradientUnits="userSpaceOnUse" gradientTransform="translate(546.304 432.332) rotate(180) scale(565.43)">
<stop stop-color="#FF5731"/>
<stop offset="0.3795" stop-color="#BA005E"/>
<stop offset="0.7072" stop-color="#621276"/>
<stop offset="0.9972" stop-color="#8160FF"/>
</radialGradient>
<radialGradient id="paint2_radial_932_742" cx="0" cy="0" r="1" gradientUnits="userSpaceOnUse" gradientTransform="translate(550.938 372.797) rotate(180) scale(558.128)">
<stop stop-color="#FF5731"/>
<stop offset="0.3795" stop-color="#BA005E"/>
<stop offset="0.7072" stop-color="#621276"/>
<stop offset="0.9972" stop-color="#8160FF"/>
</radialGradient>
<radialGradient id="paint3_radial_932_742" cx="0" cy="0" r="1" gradientUnits="userSpaceOnUse" gradientTransform="translate(39.1961 84.2157) rotate(53.3639) scale(42.8479 61.517)">
<stop offset="0.1882" stop-color="#0683EA"/>
<stop offset="0.6034" stop-color="#0BB3F6"/>
<stop offset="1" stop-color="#F2F4FF"/>
</radialGradient>
<radialGradient id="paint4_radial_932_742" cx="0" cy="0" r="1" gradientUnits="userSpaceOnUse" gradientTransform="translate(38.666 83.4185) rotate(54.9712) scale(33.0273 46.7201)">
<stop offset="0.1882" stop-color="#0683EA"/>
<stop offset="0.6034" stop-color="#0BB3F6"/>
<stop offset="1" stop-color="#F2F4FF"/>
</radialGradient>
<radialGradient id="paint5_radial_932_742" cx="0" cy="0" r="1" gradientUnits="userSpaceOnUse" gradientTransform="translate(37.901 82.1053) rotate(54.9712) scale(18.4012 26.0302)">
<stop offset="0.1882" stop-color="#0683EA"/>
<stop offset="0.6034" stop-color="#0BB3F6"/>
<stop offset="1" stop-color="#F2F4FF"/>
</radialGradient>
<radialGradient id="paint6_radial_932_742" cx="0" cy="0" r="1" gradientUnits="userSpaceOnUse" gradientTransform="translate(48.7098 44.4588) rotate(147.297) scale(39.7036 48.0703)">
<stop stop-color="#F2F4FF"/>
<stop offset="0.3966" stop-color="#0BB3F6"/>
<stop offset="0.8118" stop-color="#0683EA"/>
</radialGradient>
<radialGradient id="paint7_radial_932_742" cx="0" cy="0" r="1" gradientUnits="userSpaceOnUse" gradientTransform="translate(50.8683 50.4591) rotate(147.297) scale(30.9104 37.4241)">
<stop stop-color="#F2F4FF"/>
<stop offset="0.3966" stop-color="#0BB3F6"/>
<stop offset="0.8118" stop-color="#0683EA"/>
</radialGradient>
<radialGradient id="paint8_radial_932_742" cx="0" cy="0" r="1" gradientUnits="userSpaceOnUse" gradientTransform="translate(48.709 44.4581) rotate(147.297) scale(39.7042 48.071)">
<stop stop-color="#F2F4FF"/>
<stop offset="0.3966" stop-color="#0BB3F6"/>
<stop offset="0.8118" stop-color="#0683EA"/>
</radialGradient>
<radialGradient id="paint9_radial_932_742" cx="0" cy="0" r="1" gradientUnits="userSpaceOnUse" gradientTransform="translate(59.1243 -42.861) rotate(129.826) scale(33.3526 39.2305)">
<stop stop-color="#F2F4FF"/>
<stop offset="0.3966" stop-color="#0BB3F6"/>
<stop offset="0.8118" stop-color="#0683EA"/>
</radialGradient>
<radialGradient id="paint10_radial_932_742" cx="0" cy="0" r="1" gradientUnits="userSpaceOnUse" gradientTransform="translate(74.7006 -23.4731) rotate(-175.343) scale(34.9945 37.4114)">
<stop stop-color="#F2F4FF"/>
<stop offset="0.3966" stop-color="#0BB3F6"/>
<stop offset="0.8118" stop-color="#0683EA"/>
</radialGradient>
<radialGradient id="paint11_radial_932_742" cx="0" cy="0" r="1" gradientUnits="userSpaceOnUse" gradientTransform="translate(1.04953 75.0611) rotate(-32.7032) scale(39.7049 48.0719)">
<stop stop-color="#F2F4FF"/>
<stop offset="0.3966" stop-color="#0BB3F6"/>
<stop offset="0.8118" stop-color="#0683EA"/>
</radialGradient>
<radialGradient id="paint12_radial_932_742" cx="0" cy="0" r="1" gradientUnits="userSpaceOnUse" gradientTransform="translate(5.60882 79.5216) rotate(-32.7032) scale(30.9106 37.4244)">
<stop stop-color="#F2F4FF"/>
<stop offset="0.3966" stop-color="#0BB3F6"/>
<stop offset="0.8118" stop-color="#0683EA"/>
</radialGradient>
<radialGradient id="paint13_radial_932_742" cx="0" cy="0" r="1" gradientUnits="userSpaceOnUse" gradientTransform="translate(1.05097 75.0614) rotate(-32.7032) scale(39.7037 48.0704)">
<stop stop-color="#F2F4FF"/>
<stop offset="0.3966" stop-color="#0BB3F6"/>
<stop offset="0.8118" stop-color="#0683EA"/>
</radialGradient>
<radialGradient id="paint14_radial_932_742" cx="0" cy="0" r="1" gradientUnits="userSpaceOnUse" gradientTransform="translate(-82.6847 48.2325) rotate(-15.2388) scale(33.351 39.2242)">
<stop stop-color="#F2F4FF"/>
<stop offset="0.3966" stop-color="#0BB3F6"/>
<stop offset="0.8118" stop-color="#0683EA"/>
</radialGradient>
<radialGradient id="paint15_radial_932_742" cx="0" cy="0" r="1" gradientUnits="userSpaceOnUse" gradientTransform="translate(-71.5528 70.4213) rotate(-70.0684) scale(35.003 37.4191)">
<stop stop-color="#F2F4FF"/>
<stop offset="0.3966" stop-color="#0BB3F6"/>
<stop offset="0.8118" stop-color="#0683EA"/>
</radialGradient>
<radialGradient id="paint16_radial_932_742" cx="0" cy="0" r="1" gradientUnits="userSpaceOnUse" gradientTransform="translate(23.905 14.685) rotate(147.297) scale(75.64)">
<stop offset="0.0555556" stop-color="#FAF1D6"/>
<stop offset="0.2369" stop-color="#F8EDD3"/>
<stop offset="0.422" stop-color="#F2E1CA"/>
<stop offset="0.6089" stop-color="#E8CCBA"/>
<stop offset="0.7958" stop-color="#DAB0A5"/>
<stop offset="0.9519" stop-color="#CC928E"/>
</radialGradient>
<radialGradient id="paint17_radial_932_742" cx="0" cy="0" r="1" gradientUnits="userSpaceOnUse" gradientTransform="translate(23.9066 14.6858) rotate(147.297) scale(75.6393)">
<stop offset="0.0555556" stop-color="#FAF1D6"/>
<stop offset="0.2369" stop-color="#F8EDD3"/>
<stop offset="0.422" stop-color="#F2E1CA"/>
<stop offset="0.6089" stop-color="#E8CCBA"/>
<stop offset="0.7958" stop-color="#DAB0A5"/>
<stop offset="0.9519" stop-color="#CC928E"/>
</radialGradient>
<radialGradient id="paint18_radial_932_742" cx="0" cy="0" r="1" gradientUnits="userSpaceOnUse" gradientTransform="translate(-9.23022 190.628) rotate(-39.7667) scale(54.3411)">
<stop offset="0.0555556" stop-color="#FAF1D6"/>
<stop offset="0.2369" stop-color="#F8EDD3"/>
<stop offset="0.422" stop-color="#F2E1CA"/>
<stop offset="0.6089" stop-color="#E8CCBA"/>
<stop offset="0.7958" stop-color="#DAB0A5"/>
<stop offset="0.9519" stop-color="#CC928E"/>
</radialGradient>
<radialGradient id="paint19_radial_932_742" cx="0" cy="0" r="1" gradientUnits="userSpaceOnUse" gradientTransform="translate(-20.0677 194.209) rotate(7.03618) scale(54.3428)">
<stop offset="0.0555556" stop-color="#FAF1D6"/>
<stop offset="0.2369" stop-color="#F8EDD3"/>
<stop offset="0.422" stop-color="#F2E1CA"/>
<stop offset="0.6089" stop-color="#E8CCBA"/>
<stop offset="0.7958" stop-color="#DAB0A5"/>
<stop offset="0.9519" stop-color="#CC928E"/>
</radialGradient>
<radialGradient id="paint20_radial_932_742" cx="0" cy="0" r="1" gradientUnits="userSpaceOnUse" gradientTransform="translate(43.8121 53.2386) rotate(147.297) scale(42.872)">
<stop stop-color="#FF5731"/>
<stop offset="0.6983" stop-color="#BA005E"/>
<stop offset="0.9478" stop-color="#5E1377"/>
</radialGradient>
<radialGradient id="paint21_radial_932_742" cx="0" cy="0" r="1" gradientUnits="userSpaceOnUse" gradientTransform="translate(43.8122 53.2375) rotate(147.297) scale(50.4173)">
<stop stop-color="#5E1377"/>
<stop offset="0.9972" stop-color="#8160FF"/>
</radialGradient>
<radialGradient id="paint22_radial_932_742" cx="0" cy="0" r="1" gradientUnits="userSpaceOnUse" gradientTransform="translate(5.3191 22.0972) rotate(147.297) scale(22.2584)">
<stop stop-color="#FF5731"/>
<stop offset="0.6983" stop-color="#BA005E"/>
<stop offset="0.9478" stop-color="#5E1377"/>
</radialGradient>
<radialGradient id="paint23_radial_932_742" cx="0" cy="0" r="1" gradientUnits="userSpaceOnUse" gradientTransform="translate(5.31957 22.0974) rotate(147.297) scale(22.2584)">
<stop stop-color="#5E1377"/>
<stop offset="0.9972" stop-color="#8160FF"/>
</radialGradient>
<linearGradient id="paint24_linear_932_742" x1="9.33124" y1="28.1602" x2="6.14656" y2="31.6082" gradientUnits="userSpaceOnUse">
<stop stop-color="#FFFF29"/>
<stop offset="1" stop-color="#FF7E59"/>
</linearGradient>
<linearGradient id="paint25_linear_932_742" x1="15.2378" y1="30.8777" x2="12.0296" y2="30.9044" gradientUnits="userSpaceOnUse">
<stop stop-color="#FFFF29"/>
<stop offset="1" stop-color="#FF7E59"/>
</linearGradient>
<radialGradient id="paint26_radial_932_742" cx="0" cy="0" r="1" gradientUnits="userSpaceOnUse" gradientTransform="translate(31.3894 70.2332) rotate(147.297) scale(12.5237)">
<stop offset="0.0555556" stop-color="#FAF1D6"/>
<stop offset="0.2369" stop-color="#F8EDD3"/>
<stop offset="0.422" stop-color="#F2E1CA"/>
<stop offset="0.6089" stop-color="#E8CCBA"/>
<stop offset="0.7958" stop-color="#DAB0A5"/>
<stop offset="0.9519" stop-color="#CC928E"/>
</radialGradient>
<linearGradient id="paint27_linear_932_742" x1="41.5452" y1="62.9695" x2="21.4341" y2="75.8823" gradientUnits="userSpaceOnUse">
<stop stop-color="#FFFF29"/>
<stop offset="1" stop-color="#FF7E59"/>
</linearGradient>
<linearGradient id="paint28_linear_932_742" x1="40.8131" y1="61.829" x2="21.842" y2="74.0097" gradientUnits="userSpaceOnUse">
<stop stop-color="#FFFF29"/>
<stop offset="1" stop-color="#FF7E59"/>
</linearGradient>
<radialGradient id="paint29_radial_932_742" cx="0" cy="0" r="1" gradientUnits="userSpaceOnUse" gradientTransform="translate(26.2772 55.9753) rotate(147.297) scale(22.5303)">
<stop offset="0.052173" stop-color="#5E1377"/>
<stop offset="1" stop-color="#000534"/>
</radialGradient>
<radialGradient id="paint30_radial_932_742" cx="0" cy="0" r="1" gradientUnits="userSpaceOnUse" gradientTransform="translate(26.9939 57.7327) rotate(147.297) scale(16.5659)">
<stop offset="0.052173" stop-color="#5E1377"/>
<stop offset="1" stop-color="#000534"/>
</radialGradient>
<radialGradient id="paint31_radial_932_742" cx="0" cy="0" r="1" gradientUnits="userSpaceOnUse" gradientTransform="translate(43.9369 93.9567) rotate(-64.8111) scale(35.7683)">
<stop offset="0.052173" stop-color="#5E1377"/>
<stop offset="1" stop-color="#000534"/>
</radialGradient>
<radialGradient id="paint32_radial_932_742" cx="0" cy="0" r="1" gradientUnits="userSpaceOnUse" gradientTransform="translate(36.833 104.904) rotate(-18.0109) scale(35.7881)">
<stop offset="0.052173" stop-color="#5E1377"/>
<stop offset="1" stop-color="#000534"/>
</radialGradient>
<radialGradient id="paint33_radial_932_742" cx="0" cy="0" r="1" gradientUnits="userSpaceOnUse" gradientTransform="translate(19.0685 51.0461) rotate(147.297) scale(8.7414)">
<stop offset="0.0555556" stop-color="#FAF1D6"/>
<stop offset="0.2369" stop-color="#F8EDD3"/>
<stop offset="0.422" stop-color="#F2E1CA"/>
<stop offset="0.6089" stop-color="#E8CCBA"/>
<stop offset="0.7958" stop-color="#DAB0A5"/>
<stop offset="0.9519" stop-color="#CC928E"/>
</radialGradient>
<linearGradient id="paint34_linear_932_742" x1="26.156" y1="45.9764" x2="12.1195" y2="54.9887" gradientUnits="userSpaceOnUse">
<stop stop-color="#FFFF29"/>
<stop offset="1" stop-color="#FF7E59"/>
</linearGradient>
<linearGradient id="paint35_linear_932_742" x1="25.6456" y1="45.1812" x2="12.4057" y2="53.6821" gradientUnits="userSpaceOnUse">
<stop stop-color="#FFFF29"/>
<stop offset="1" stop-color="#FF7E59"/>
</linearGradient>
<radialGradient id="paint36_radial_932_742" cx="0" cy="0" r="1" gradientUnits="userSpaceOnUse" gradientTransform="translate(15.5021 41.0957) rotate(147.297) scale(15.7236)">
<stop offset="0.052173" stop-color="#5E1377"/>
<stop offset="1" stop-color="#000534"/>
</radialGradient>
<radialGradient id="paint37_radial_932_742" cx="0" cy="0" r="1" gradientUnits="userSpaceOnUse" gradientTransform="translate(16.001 42.3227) rotate(147.297) scale(11.5629)">
<stop offset="0.052173" stop-color="#5E1377"/>
<stop offset="1" stop-color="#000534"/>
</radialGradient>
<radialGradient id="paint38_radial_932_742" cx="0" cy="0" r="1" gradientUnits="userSpaceOnUse" gradientTransform="translate(27.8203 67.6007) rotate(-64.8111) scale(24.9546)">
<stop offset="0.052173" stop-color="#5E1377"/>
<stop offset="1" stop-color="#000534"/>
</radialGradient>
<radialGradient id="paint39_radial_932_742" cx="0" cy="0" r="1" gradientUnits="userSpaceOnUse" gradientTransform="translate(22.8712 75.2534) rotate(-18.011) scale(24.9895)">
<stop offset="0.052173" stop-color="#5E1377"/>
<stop offset="1" stop-color="#000534"/>
</radialGradient>
<clipPath id="clip0_932_742">
<rect width="71.5" height="91.6" fill="white" transform="matrix(-1 0 0 1 71.5 27.0001)"/>
</clipPath>
</defs>
</svg>
