<svg width="258" height="325" viewBox="0 0 258 325" fill="none" xmlns="http://www.w3.org/2000/svg">
<path opacity="0.4" fill-rule="evenodd" clip-rule="evenodd" d="M56.5708 215.506C59.1708 223.306 74.0708 221.906 80.9708 220.806C79.9708 219.006 79.0708 217.106 78.3708 215.206C72.4708 215.306 64.7708 214.306 65.6708 208.206C67.0708 198.506 91.1708 162.906 123.171 139.306C155.171 115.706 124.371 98.506 212.471 77.406C229.571 73.306 247.071 69.706 264.671 69.006C270.971 68.706 299.371 69.306 290.571 81.506C288.571 84.206 283.471 87.906 280.571 86.206C280.371 86.006 280.371 86.006 280.571 86.206C283.871 88.606 285.971 91.806 285.971 91.806C285.971 91.806 293.871 86.506 295.971 83.806C298.771 80.306 301.471 77.406 300.571 72.806C298.371 62.006 279.871 62.806 271.071 62.606C256.171 62.306 241.171 63.806 226.371 65.606C187.771 70.306 168.271 77.206 144.771 91.706C121.271 106.206 122.071 120.406 105.371 132.806C88.7708 145.306 71.9708 182.806 71.9708 182.806C71.9708 182.806 53.1708 205.306 56.5708 215.506Z" fill="url(#paint0_radial_122_193)"/>
<path opacity="0.4" d="M29.5706 120.506C29.5706 120.506 69.8706 44.506 114.571 41.206C159.271 37.906 169.271 45.906 194.571 33.906C219.871 21.906 261.271 6.60605 279.271 15.906C288.671 20.806 296.171 29.006 300.871 38.506C308.271 53.206 302.171 67.206 306.071 82.206C309.671 95.906 317.371 111.106 330.371 118.106C342.571 124.706 358.071 122.306 369.871 129.706C383.371 138.106 383.871 156.806 378.471 169.906C372.371 184.906 361.871 198.406 350.271 209.506C338.271 220.906 321.871 226.506 310.571 237.906C301.471 247.106 296.671 259.706 290.771 270.906C281.971 287.806 264.771 302.406 245.771 306.906C224.071 312.106 243.071 291.006 231.771 285.706C208.371 274.506 177.271 292.106 152.871 283.406C164.271 295.906 184.571 292.706 199.171 298.306C209.171 302.106 209.771 307.706 216.171 314.606C223.271 322.206 231.871 321.406 241.971 319.906C262.971 316.706 278.471 303.506 293.471 288.706C310.271 272.206 319.071 248.906 335.671 232.106C343.771 223.906 353.671 220.706 362.671 214.006C374.471 205.206 385.071 193.006 394.471 181.806C402.371 172.506 439.871 129.206 421.671 116.006C408.871 106.706 393.071 114.106 379.071 115.406C365.171 116.706 342.471 116.206 330.971 107.506C303.271 86.506 323.971 53.306 315.571 26.106C310.471 9.50601 294.471 2.40604 278.371 0.706024C228.371 -4.59396 211.671 21.406 175.671 30.006C139.671 38.706 102.371 26.706 64.9707 50.706C27.5707 74.706 15.6707 105.406 15.6707 105.406L29.5706 120.506Z" fill="url(#paint1_radial_122_193)"/>
<path opacity="0.4" d="M163.871 284.506C161.171 283.806 131.171 283.806 110.571 296.506C89.9707 309.206 57.1707 333.206 23.1707 321.206C-10.8293 309.206 0.470673 286.506 11.8707 271.906C23.2707 257.306 73.8707 247.206 86.5707 235.206C99.2707 223.206 116.571 199.206 143.271 195.206C169.971 191.206 248.571 187.106 269.271 181.506C289.971 175.906 331.971 160.606 337.971 171.206C343.971 181.906 308.671 204.506 308.671 204.506L309.971 197.206C309.971 197.206 334.671 183.906 325.271 178.506C315.871 173.106 281.471 180.706 267.971 187.806C254.371 194.906 213.271 206.506 193.971 204.506C174.671 202.506 143.971 200.506 126.671 219.806C109.371 239.106 86.6707 260.506 59.9707 267.106C33.2707 273.706 16.7707 294.006 32.6707 306.606C48.5706 319.106 81.9707 312.506 97.9707 299.106C113.971 285.706 145.271 281.806 145.271 281.806L163.871 284.506Z" fill="url(#paint2_radial_122_193)"/>
<defs>
<radialGradient id="paint0_radial_122_193" cx="0" cy="0" r="1" gradientUnits="userSpaceOnUse" gradientTransform="translate(581.885 166.225) rotate(153.521) scale(553.004 487.3)">
<stop stop-color="#FF5731"/>
<stop offset="0.3795" stop-color="#BA005E"/>
<stop offset="0.7072" stop-color="#621276"/>
<stop offset="0.9972" stop-color="#8160FF"/>
</radialGradient>
<radialGradient id="paint1_radial_122_193" cx="0" cy="0" r="1" gradientUnits="userSpaceOnUse" gradientTransform="translate(514.45 445.91) rotate(180) scale(571.924)">
<stop stop-color="#FF5731"/>
<stop offset="0.3795" stop-color="#BA005E"/>
<stop offset="0.7072" stop-color="#621276"/>
<stop offset="0.9972" stop-color="#8160FF"/>
</radialGradient>
<radialGradient id="paint2_radial_122_193" cx="0" cy="0" r="1" gradientUnits="userSpaceOnUse" gradientTransform="translate(513.194 355.871) rotate(180) scale(522.879)">
<stop stop-color="#FF5731"/>
<stop offset="0.3795" stop-color="#BA005E"/>
<stop offset="0.7072" stop-color="#621276"/>
<stop offset="0.9972" stop-color="#8160FF"/>
</radialGradient>
</defs>
</svg>
